<?xml version="1.0" encoding="utf-8"?>
<!-- Generator: Adobe Illustrator 27.1.0, SVG Export Plug-In . SVG Version: 6.00 Build 0)  -->
<svg version="1.1" id="Layer_1" xmlns="http://www.w3.org/2000/svg" xmlns:xlink="http://www.w3.org/1999/xlink" x="0px" y="0px"
	 viewBox="0 0 20 20" style="enable-background:new 0 0 20 20;" xml:space="preserve">
<path d="M18.3,12.8c-1.2,3.5-4.5,6-8.3,6c-4.8,0-8.8-3.9-8.8-8.8h1c0,4.3,3.5,7.8,7.8,7.8c3.3,0,6.2-2.1,7.3-5H18.3z"/>
<path d="M18.8,9.9h-1c-0.1-4.2-3.5-7.7-7.8-7.7c-3.3,0-6.1,2.1-7.3,5H1.7c1.2-3.5,4.5-6,8.3-6C14.8,1.2,18.7,5.1,18.8,9.9z"/>
<polygon points="19.2,18.6 18.3,18.8 17.5,13.5 12.2,14.2 12.1,13.2 18.4,12.4 "/>
<polygon points="7.8,6.7 1.5,7.6 0.7,1.3 1.7,1.2 2.4,6.4 7.7,5.7 "/>
</svg>
