<svg xmlns="http://www.w3.org/2000/svg" version="1.1" xmlns:xlink="http://www.w3.org/1999/xlink" width="80" height="80"><svg viewBox="0 0 80 80" version="1.1" xmlns="http://www.w3.org/2000/svg" xmlns:xlink="http://www.w3.org/1999/xlink" xml:space="preserve" xmlns:serif="http://www.serif.com/" style="fill-rule:evenodd;clip-rule:evenodd;stroke-linejoin:round;stroke-miterlimit:2;">
    <g id="SvgjsG1003" transform="matrix(0.96,0,0,0.96,-4.44977e-15,0)">
        <path d="M83.333,8.333L83.333,75C83.333,79.599 79.599,83.333 75,83.333L8.333,83.333C3.734,83.333 0,79.599 0,75L0,8.333C0,3.734 3.734,0 8.333,0L75,0C79.599,0 83.333,3.734 83.333,8.333Z" style="fill:rgb(98,165,218);"></path>
        <clipPath id="SvgjsClipPath1002">
            <path d="M83.333,8.333L83.333,75C83.333,79.599 79.599,83.333 75,83.333L8.333,83.333C3.734,83.333 0,79.599 0,75L0,8.333C0,3.734 3.734,0 8.333,0L75,0C79.599,0 83.333,3.734 83.333,8.333Z"></path>
        </clipPath>
        <g clip-path="url(#_clip1)">
            <g transform="matrix(1.40625,0,0,4.28241,-14.5833,-56.5394)">
                <ellipse cx="40" cy="29.5" rx="40" ry="4.5" style="fill:rgb(27,52,100);"></ellipse>
            </g>
            <g transform="matrix(1.04167,0,0,1.04167,4.63518e-15,0)">
                <rect x="27" y="46" width="26" height="20" style="fill:rgb(98,165,218);"></rect>
            </g>
            <g transform="matrix(1.40625,0,0,4.28241,-14.5833,-42.9977)">
                <ellipse cx="40" cy="29.5" rx="40" ry="4.5" style="fill:rgb(251,192,60);"></ellipse>
            </g>
            <g transform="matrix(1.04167,0,0,0.771605,2.08333,30.4398)">
                <path d="M32,49.65C32,50.396 31.552,51 31,51C28.273,51 20.727,51 18,51C17.735,51 17.48,50.858 17.293,50.605C17.105,50.351 17,50.008 17,49.65C17,44.186 17,24 17,24L59,24L59,49.65C59,50.008 58.895,50.351 58.707,50.605C58.52,50.858 58.265,51 58,51C55.273,51 47.727,51 45,51C44.448,51 44,50.396 44,49.65C44,45.539 44,33.45 44,33.45C44,30.47 41.311,28.05 38,28.05C34.689,28.05 32,30.47 32,33.45L32,49.65Z" style="fill:rgb(27,52,100);"></path>
            </g>
            <g transform="matrix(0.248016,0,0,0.578704,15.5754,26.7361)">
                <rect x="17" y="24" width="42" height="27" style="fill:rgb(27,52,100);"></rect>
            </g>
            <g>
                <g>
                    <g transform="matrix(3.18918e-17,0.520833,-0.651042,3.98648e-17,41.6667,13.5417)">
                        <path d="M42,24L46,32L38,32L42,24Z" style="fill:white;"></path>
                    </g>
                    <g transform="matrix(1.04167,0,0,1.21528,-41.6667,-5.38194)">
                        <path d="M59.5,31C59.776,31 60,31.192 60,31.429C60,32.533 60,35.467 60,36.571C60,36.808 59.776,37 59.5,37C59.224,37 59,36.808 59,36.571C59,35.467 59,32.533 59,31.429C59,31.192 59.224,31 59.5,31Z" style="fill:rgb(96,66,0);"></path>
                    </g>
                </g>
                <g>
                    <g transform="matrix(3.18918e-17,0.520833,-0.651042,3.98648e-17,50,13.5417)">
                        <path d="M42,24L46,32L38,32L42,24Z" style="fill:rgb(59,66,217);"></path>
                    </g>
                    <g transform="matrix(1.04167,0,0,1.21528,-33.3333,-5.38194)">
                        <path d="M59.5,31C59.776,31 60,31.192 60,31.429C60,32.533 60,35.467 60,36.571C60,36.808 59.776,37 59.5,37C59.224,37 59,36.808 59,36.571C59,35.467 59,32.533 59,31.429C59,31.192 59.224,31 59.5,31Z" style="fill:rgb(96,66,0);"></path>
                    </g>
                </g>
                <g>
                    <g transform="matrix(3.18918e-17,0.520833,-0.651042,3.98648e-17,75,13.5417)">
                        <path d="M42,24L46,32L38,32L42,24Z" style="fill:rgb(255,138,0);"></path>
                    </g>
                    <g transform="matrix(1.04167,0,0,1.21528,-8.33333,-5.38194)">
                        <path d="M59.5,31C59.776,31 60,31.192 60,31.429C60,32.533 60,35.467 60,36.571C60,36.808 59.776,37 59.5,37C59.224,37 59,36.808 59,36.571C59,35.467 59,32.533 59,31.429C59,31.192 59.224,31 59.5,31Z" style="fill:rgb(96,66,0);"></path>
                    </g>
                </g>
                <g>
                    <g transform="matrix(3.18918e-17,0.520833,-0.651042,3.98648e-17,83.3333,13.5417)">
                        <path d="M42,24L46,32L38,32L42,24Z" style="fill:rgb(217,63,59);"></path>
                    </g>
                    <g transform="matrix(1.04167,0,0,1.21528,4.63518e-15,-5.38194)">
                        <path d="M59.5,31C59.776,31 60,31.192 60,31.429C60,32.533 60,35.467 60,36.571C60,36.808 59.776,37 59.5,37C59.224,37 59,36.808 59,36.571C59,35.467 59,32.533 59,31.429C59,31.192 59.224,31 59.5,31Z" style="fill:rgb(96,66,0);"></path>
                    </g>
                </g>
            </g>
            <g transform="matrix(1,0,0,1,0,6.25)">
                <g transform="matrix(0.0496032,0,0,0.115741,18.9484,29.5139)">
                    <path d="M48.5,24C51.284,24 53.955,24.474 55.925,25.318C57.894,26.162 59,27.307 59,28.5C59,33.494 59,41.506 59,46.5C59,47.693 57.894,48.838 55.925,49.682C53.955,50.526 51.284,51 48.5,51C42.086,51 33.914,51 27.5,51C24.716,51 22.045,50.526 20.075,49.682C18.106,48.838 17,47.693 17,46.5C17,41.506 17,33.494 17,28.5C17,27.307 18.106,26.162 20.075,25.318C22.045,24.474 24.716,24 27.5,24C33.914,24 42.086,24 48.5,24Z" style="fill:rgb(27,52,100);"></path>
                </g>
                <g transform="matrix(0.0496032,0,0,0.115741,23.1151,29.5139)">
                    <path d="M48.5,24C51.284,24 53.955,24.474 55.925,25.318C57.894,26.162 59,27.307 59,28.5C59,33.494 59,41.506 59,46.5C59,47.693 57.894,48.838 55.925,49.682C53.955,50.526 51.284,51 48.5,51C42.086,51 33.914,51 27.5,51C24.716,51 22.045,50.526 20.075,49.682C18.106,48.838 17,47.693 17,46.5C17,41.506 17,33.494 17,28.5C17,27.307 18.106,26.162 20.075,25.318C22.045,24.474 24.716,24 27.5,24C33.914,24 42.086,24 48.5,24Z" style="fill:rgb(27,52,100);"></path>
                </g>
                <g transform="matrix(0.0496032,0,0,0.115741,27.2817,29.5139)">
                    <path d="M48.5,24C51.284,24 53.955,24.474 55.925,25.318C57.894,26.162 59,27.307 59,28.5C59,33.494 59,41.506 59,46.5C59,47.693 57.894,48.838 55.925,49.682C53.955,50.526 51.284,51 48.5,51C42.086,51 33.914,51 27.5,51C24.716,51 22.045,50.526 20.075,49.682C18.106,48.838 17,47.693 17,46.5C17,41.506 17,33.494 17,28.5C17,27.307 18.106,26.162 20.075,25.318C22.045,24.474 24.716,24 27.5,24C33.914,24 42.086,24 48.5,24Z" style="fill:rgb(27,52,100);"></path>
                </g>
            </g>
            <g transform="matrix(1,0,0,1,0,6.25)">
                <g transform="matrix(0.0496032,0,0,0.115741,60.6151,29.5139)">
                    <path d="M48.5,24C51.284,24 53.955,24.474 55.925,25.318C57.894,26.162 59,27.307 59,28.5C59,33.494 59,41.506 59,46.5C59,47.693 57.894,48.838 55.925,49.682C53.955,50.526 51.284,51 48.5,51C42.086,51 33.914,51 27.5,51C24.716,51 22.045,50.526 20.075,49.682C18.106,48.838 17,47.693 17,46.5C17,41.506 17,33.494 17,28.5C17,27.307 18.106,26.162 20.075,25.318C22.045,24.474 24.716,24 27.5,24C33.914,24 42.086,24 48.5,24Z" style="fill:rgb(27,52,100);"></path>
                </g>
                <g transform="matrix(0.0496032,0,0,0.115741,52.2817,29.5139)">
                    <path d="M48.5,24C51.284,24 53.955,24.474 55.925,25.318C57.894,26.162 59,27.307 59,28.5C59,33.494 59,41.506 59,46.5C59,47.693 57.894,48.838 55.925,49.682C53.955,50.526 51.284,51 48.5,51C42.086,51 33.914,51 27.5,51C24.716,51 22.045,50.526 20.075,49.682C18.106,48.838 17,47.693 17,46.5C17,41.506 17,33.494 17,28.5C17,27.307 18.106,26.162 20.075,25.318C22.045,24.474 24.716,24 27.5,24C33.914,24 42.086,24 48.5,24Z" style="fill:rgb(27,52,100);"></path>
                </g>
                <g transform="matrix(0.0496032,0,0,0.115741,56.4484,29.5139)">
                    <path d="M48.5,24C51.284,24 53.955,24.474 55.925,25.318C57.894,26.162 59,27.307 59,28.5C59,33.494 59,41.506 59,46.5C59,47.693 57.894,48.838 55.925,49.682C53.955,50.526 51.284,51 48.5,51C42.086,51 33.914,51 27.5,51C24.716,51 22.045,50.526 20.075,49.682C18.106,48.838 17,47.693 17,46.5C17,41.506 17,33.494 17,28.5C17,27.307 18.106,26.162 20.075,25.318C22.045,24.474 24.716,24 27.5,24C33.914,24 42.086,24 48.5,24Z" style="fill:rgb(27,52,100);"></path>
                </g>
            </g>
            <g transform="matrix(0.248016,0,0,0.578704,48.9087,26.7361)">
                <rect x="17" y="24" width="42" height="27" style="fill:rgb(27,52,100);"></rect>
            </g>
            <g transform="matrix(1,0,0,1,0,3.125)">
                <g transform="matrix(0.0496032,0,0,0.115741,31.4484,36.8056)">
                    <path d="M48.5,24C51.284,24 53.955,24.474 55.925,25.318C57.894,26.162 59,27.307 59,28.5C59,33.494 59,41.506 59,46.5C59,47.693 57.894,48.838 55.925,49.682C53.955,50.526 51.284,51 48.5,51C42.086,51 33.914,51 27.5,51C24.716,51 22.045,50.526 20.075,49.682C18.106,48.838 17,47.693 17,46.5C17,41.506 17,33.494 17,28.5C17,27.307 18.106,26.162 20.075,25.318C22.045,24.474 24.716,24 27.5,24C33.914,24 42.086,24 48.5,24Z" style="fill:rgb(27,52,100);"></path>
                </g>
                <g transform="matrix(0.0496032,0,0,0.115741,35.6151,36.8056)">
                    <path d="M48.5,24C51.284,24 53.955,24.474 55.925,25.318C57.894,26.162 59,27.307 59,28.5C59,33.494 59,41.506 59,46.5C59,47.693 57.894,48.838 55.925,49.682C53.955,50.526 51.284,51 48.5,51C42.086,51 33.914,51 27.5,51C24.716,51 22.045,50.526 20.075,49.682C18.106,48.838 17,47.693 17,46.5C17,41.506 17,33.494 17,28.5C17,27.307 18.106,26.162 20.075,25.318C22.045,24.474 24.716,24 27.5,24C33.914,24 42.086,24 48.5,24Z" style="fill:rgb(27,52,100);"></path>
                </g>
                <g transform="matrix(0.0496032,0,0,0.115741,48.1151,36.8056)">
                    <path d="M48.5,24C51.284,24 53.955,24.474 55.925,25.318C57.894,26.162 59,27.307 59,28.5C59,33.494 59,41.506 59,46.5C59,47.693 57.894,48.838 55.925,49.682C53.955,50.526 51.284,51 48.5,51C42.086,51 33.914,51 27.5,51C24.716,51 22.045,50.526 20.075,49.682C18.106,48.838 17,47.693 17,46.5C17,41.506 17,33.494 17,28.5C17,27.307 18.106,26.162 20.075,25.318C22.045,24.474 24.716,24 27.5,24C33.914,24 42.086,24 48.5,24Z" style="fill:rgb(27,52,100);"></path>
                </g>
                <g transform="matrix(0.0496032,0,0,0.115741,39.7817,36.8056)">
                    <path d="M48.5,24C51.284,24 53.955,24.474 55.925,25.318C57.894,26.162 59,27.307 59,28.5C59,33.494 59,41.506 59,46.5C59,47.693 57.894,48.838 55.925,49.682C53.955,50.526 51.284,51 48.5,51C42.086,51 33.914,51 27.5,51C24.716,51 22.045,50.526 20.075,49.682C18.106,48.838 17,47.693 17,46.5C17,41.506 17,33.494 17,28.5C17,27.307 18.106,26.162 20.075,25.318C22.045,24.474 24.716,24 27.5,24C33.914,24 42.086,24 48.5,24Z" style="fill:rgb(27,52,100);"></path>
                </g>
                <g transform="matrix(0.0496032,0,0,0.115741,43.9484,36.8056)">
                    <path d="M48.5,24C51.284,24 53.955,24.474 55.925,25.318C57.894,26.162 59,27.307 59,28.5C59,33.494 59,41.506 59,46.5C59,47.693 57.894,48.838 55.925,49.682C53.955,50.526 51.284,51 48.5,51C42.086,51 33.914,51 27.5,51C24.716,51 22.045,50.526 20.075,49.682C18.106,48.838 17,47.693 17,46.5C17,41.506 17,33.494 17,28.5C17,27.307 18.106,26.162 20.075,25.318C22.045,24.474 24.716,24 27.5,24C33.914,24 42.086,24 48.5,24Z" style="fill:rgb(27,52,100);"></path>
                </g>
            </g>
            <g transform="matrix(0.978351,-0.206951,0.206951,0.978351,-39.8809,22.2611)">
                <g transform="matrix(0.0496032,0,0,0.115741,31.4484,36.8056)">
                    <path d="M48.5,24C51.284,24 53.955,24.474 55.925,25.318C57.894,26.162 59,27.307 59,28.5C59,33.494 59,41.506 59,46.5C59,47.693 57.894,48.838 55.925,49.682C53.955,50.526 51.284,51 48.5,51C42.086,51 33.914,51 27.5,51C24.716,51 22.045,50.526 20.075,49.682C18.106,48.838 17,47.693 17,46.5C17,41.506 17,33.494 17,28.5C17,27.307 18.106,26.162 20.075,25.318C22.045,24.474 24.716,24 27.5,24C33.914,24 42.086,24 48.5,24Z" style="fill:rgb(27,52,100);"></path>
                </g>
                <g transform="matrix(0.0496032,0,0,0.115741,35.6151,36.8056)">
                    <path d="M48.5,24C51.284,24 53.955,24.474 55.925,25.318C57.894,26.162 59,27.307 59,28.5C59,33.494 59,41.506 59,46.5C59,47.693 57.894,48.838 55.925,49.682C53.955,50.526 51.284,51 48.5,51C42.086,51 33.914,51 27.5,51C24.716,51 22.045,50.526 20.075,49.682C18.106,48.838 17,47.693 17,46.5C17,41.506 17,33.494 17,28.5C17,27.307 18.106,26.162 20.075,25.318C22.045,24.474 24.716,24 27.5,24C33.914,24 42.086,24 48.5,24Z" style="fill:rgb(27,52,100);"></path>
                </g>
                <g transform="matrix(0.0496032,0,0,0.115741,48.1151,36.8056)">
                    <path d="M48.5,24C51.284,24 53.955,24.474 55.925,25.318C57.894,26.162 59,27.307 59,28.5C59,33.494 59,41.506 59,46.5C59,47.693 57.894,48.838 55.925,49.682C53.955,50.526 51.284,51 48.5,51C42.086,51 33.914,51 27.5,51C24.716,51 22.045,50.526 20.075,49.682C18.106,48.838 17,47.693 17,46.5C17,41.506 17,33.494 17,28.5C17,27.307 18.106,26.162 20.075,25.318C22.045,24.474 24.716,24 27.5,24C33.914,24 42.086,24 48.5,24Z" style="fill:rgb(27,52,100);"></path>
                </g>
                <g transform="matrix(0.0496032,1.37676e-18,0,0.115741,39.7817,36.8056)">
                    <path d="M48.5,24C51.284,24 53.955,24.474 55.925,25.318C57.894,26.162 59,27.307 59,28.5C59,33.494 59,41.506 59,46.5C59,47.693 57.894,48.838 55.925,49.682C53.955,50.526 51.284,51 48.5,51C42.086,51 33.914,51 27.5,51C24.716,51 22.045,50.526 20.075,49.682C18.106,48.838 17,47.693 17,46.5C17,41.506 17,33.494 17,28.5C17,27.307 18.106,26.162 20.075,25.318C22.045,24.474 24.716,24 27.5,24C33.914,24 42.086,24 48.5,24Z" style="fill:rgb(27,52,100);"></path>
                </g>
                <g transform="matrix(0.0496032,0,0,0.115741,43.9484,36.8056)">
                    <path d="M48.5,24C51.284,24 53.955,24.474 55.925,25.318C57.894,26.162 59,27.307 59,28.5C59,33.494 59,41.506 59,46.5C59,47.693 57.894,48.838 55.925,49.682C53.955,50.526 51.284,51 48.5,51C42.086,51 33.914,51 27.5,51C24.716,51 22.045,50.526 20.075,49.682C18.106,48.838 17,47.693 17,46.5C17,41.506 17,33.494 17,28.5C17,27.307 18.106,26.162 20.075,25.318C22.045,24.474 24.716,24 27.5,24C33.914,24 42.086,24 48.5,24Z" style="fill:rgb(27,52,100);"></path>
                </g>
            </g>
            <g transform="matrix(-0.978351,-0.206951,-0.206951,0.978351,123.214,22.2611)">
                <g transform="matrix(0.0496032,0,0,0.115741,31.4484,36.8056)">
                    <path d="M48.5,24C51.284,24 53.955,24.474 55.925,25.318C57.894,26.162 59,27.307 59,28.5C59,33.494 59,41.506 59,46.5C59,47.693 57.894,48.838 55.925,49.682C53.955,50.526 51.284,51 48.5,51C42.086,51 33.914,51 27.5,51C24.716,51 22.045,50.526 20.075,49.682C18.106,48.838 17,47.693 17,46.5C17,41.506 17,33.494 17,28.5C17,27.307 18.106,26.162 20.075,25.318C22.045,24.474 24.716,24 27.5,24C33.914,24 42.086,24 48.5,24Z" style="fill:rgb(27,52,100);"></path>
                </g>
                <g transform="matrix(0.0496032,0,0,0.115741,35.6151,36.8056)">
                    <path d="M48.5,24C51.284,24 53.955,24.474 55.925,25.318C57.894,26.162 59,27.307 59,28.5C59,33.494 59,41.506 59,46.5C59,47.693 57.894,48.838 55.925,49.682C53.955,50.526 51.284,51 48.5,51C42.086,51 33.914,51 27.5,51C24.716,51 22.045,50.526 20.075,49.682C18.106,48.838 17,47.693 17,46.5C17,41.506 17,33.494 17,28.5C17,27.307 18.106,26.162 20.075,25.318C22.045,24.474 24.716,24 27.5,24C33.914,24 42.086,24 48.5,24Z" style="fill:rgb(27,52,100);"></path>
                </g>
                <g transform="matrix(0.0496032,0,0,0.115741,48.1151,36.8056)">
                    <path d="M48.5,24C51.284,24 53.955,24.474 55.925,25.318C57.894,26.162 59,27.307 59,28.5C59,33.494 59,41.506 59,46.5C59,47.693 57.894,48.838 55.925,49.682C53.955,50.526 51.284,51 48.5,51C42.086,51 33.914,51 27.5,51C24.716,51 22.045,50.526 20.075,49.682C18.106,48.838 17,47.693 17,46.5C17,41.506 17,33.494 17,28.5C17,27.307 18.106,26.162 20.075,25.318C22.045,24.474 24.716,24 27.5,24C33.914,24 42.086,24 48.5,24Z" style="fill:rgb(27,52,100);"></path>
                </g>
                <g transform="matrix(0.0496032,1.37676e-18,0,0.115741,39.7817,36.8056)">
                    <path d="M48.5,24C51.284,24 53.955,24.474 55.925,25.318C57.894,26.162 59,27.307 59,28.5C59,33.494 59,41.506 59,46.5C59,47.693 57.894,48.838 55.925,49.682C53.955,50.526 51.284,51 48.5,51C42.086,51 33.914,51 27.5,51C24.716,51 22.045,50.526 20.075,49.682C18.106,48.838 17,47.693 17,46.5C17,41.506 17,33.494 17,28.5C17,27.307 18.106,26.162 20.075,25.318C22.045,24.474 24.716,24 27.5,24C33.914,24 42.086,24 48.5,24Z" style="fill:rgb(27,52,100);"></path>
                </g>
                <g transform="matrix(0.0496032,0,0,0.115741,43.9484,36.8056)">
                    <path d="M48.5,24C51.284,24 53.955,24.474 55.925,25.318C57.894,26.162 59,27.307 59,28.5C59,33.494 59,41.506 59,46.5C59,47.693 57.894,48.838 55.925,49.682C53.955,50.526 51.284,51 48.5,51C42.086,51 33.914,51 27.5,51C24.716,51 22.045,50.526 20.075,49.682C18.106,48.838 17,47.693 17,46.5C17,41.506 17,33.494 17,28.5C17,27.307 18.106,26.162 20.075,25.318C22.045,24.474 24.716,24 27.5,24C33.914,24 42.086,24 48.5,24Z" style="fill:rgb(27,52,100);"></path>
                </g>
            </g>
            <g transform="matrix(0.595238,0,0,0.192901,19.0476,40.162)">
                <rect x="17" y="24" width="42" height="27" style="fill:rgb(27,52,100);"></rect>
            </g>
            <g transform="matrix(1.98861,0,0,1.98861,-23.2952,-21.3066)">
                <circle cx="16" cy="15" r="9" style="fill:rgb(251,192,60);"></circle>
            </g>
            <g transform="matrix(1.07221,0,0,1.07221,-3.01238,-19.3989)">
                <g transform="matrix(0.406712,-4.16334e-17,1.249e-16,0.406712,28.4767,30.3216)">
                    <path d="M0.656,24.192C0.656,26.519 -0.5,27.683 -2.811,27.683L-14.31,27.683C-16.605,27.683 -17.752,26.519 -17.752,24.192L-17.752,15.085L-12.04,15.085L-12.04,22.873L-5.057,22.873L-5.057,15.378L-16.507,4.538C-17.337,3.741 -17.752,2.724 -17.752,1.487L-17.752,-7.01C-17.752,-9.353 -16.605,-10.525 -14.31,-10.525L-2.811,-10.525C-0.5,-10.525 0.656,-9.37 0.656,-7.058L0.656,1.487L-5.057,1.487L-5.057,-5.716L-12.04,-5.716L-12.04,1.194L-0.589,11.985C0.241,12.766 0.656,13.799 0.656,15.085L0.656,24.192Z" style="fill:white;fill-rule:nonzero;"></path>
                </g>
                <g transform="matrix(0.406712,1.57975e-17,-1.57975e-16,0.406712,43.3313,30.3216)">
                    <path d="M46.334,24.192C46.334,26.519 45.171,27.683 42.843,27.683L30.832,27.683C28.569,27.683 27.438,26.519 27.438,24.192L27.438,-7.01C27.438,-9.353 28.594,-10.525 30.905,-10.525L42.843,-10.525C45.171,-10.525 46.334,-9.353 46.334,-7.01L46.334,1.145L40.597,1.145L40.597,-5.618L33.151,-5.618L33.151,22.776L40.597,22.776L40.597,12.082L36.349,12.082L36.349,7.224L46.334,7.224L46.334,24.192Z" style="fill:white;fill-rule:nonzero;"></path>
                </g>
                <g transform="matrix(0.75413,1.53444e-16,-2.03632e-17,0.75413,31.0643,33.9783)">
                    <path d="M24.215,-10.525L16.891,27.732L11.203,27.732L3.903,-10.525L9.64,-10.525L13.913,15.671C13.945,16.42 13.994,17.51 14.059,18.943C14.043,18.194 14.092,17.103 14.206,15.671L18.502,-10.525L24.215,-10.525Z" style="fill:white;fill-rule:nonzero;"></path>
                </g>
            </g>
        </g>
    </g>
</svg><style>@media (prefers-color-scheme: light) { :root { filter: none; } }
@media (prefers-color-scheme: dark) { :root { filter: none; } }
</style></svg>