<?xml version="1.0" encoding="utf-8"?>
<!-- Generator: Adobe Illustrator 27.1.0, SVG Export Plug-In . SVG Version: 6.00 Build 0)  -->
<svg version="1.1" id="Layer_1" xmlns="http://www.w3.org/2000/svg" xmlns:xlink="http://www.w3.org/1999/xlink" x="0px" y="0px"
	 viewBox="0 0 239.8 72.7" style="enable-background:new 0 0 239.8 72.7;" xml:space="preserve">
<style type="text/css">
	.st0{fill:#1E3C71;}
	.st1{fill:#68A9DC;}
	.st2{enable-background:new    ;}
	.st3{fill:none;stroke:#68A9DC;stroke-linecap:round;stroke-miterlimit:10;}
	.st4{fill:var(--pref-color-100);}
</style>
<g id="Group_16" transform="translate(-1571.946 -35.76)">
	<g id="Group_15">
		<g id="Group_13">
			<rect id="Rectangle_6" x="1680.9" y="35.8" class="st0" width="3.2" height="61.2"/>
			<g id="Group_12">
				<g id="Group_11">
					<g id="Group_9">
						<path id="Path_13" class="st1" d="M1702,58.7v2.4h-1.6v12.1h1.6v2.4h-4.3V58.7H1702z"/>
					</g>
					<g id="Group_10">
						<path id="Path_14" class="st1" d="M1778.5,75.6v-2.4h1.6V61.1h-1.6v-2.4h4.3v16.8L1778.5,75.6L1778.5,75.6z"/>
					</g>
				</g>
				<g class="st2">
					<path class="st0" d="M1703.8,45.2V43h5.7v5.2c-0.6,0.5-1.3,1-2.4,1.4s-2.1,0.6-3.2,0.6c-1.4,0-2.5-0.3-3.6-0.9
						s-1.8-1.4-2.3-2.4c-0.5-1.1-0.8-2.2-0.8-3.5c0-1.4,0.3-2.6,0.9-3.6c0.6-1.1,1.4-1.9,2.5-2.4c0.8-0.4,1.9-0.6,3.1-0.6
						c1.6,0,2.9,0.3,3.8,1s1.5,1.6,1.8,2.8l-2.6,0.5c-0.2-0.6-0.5-1.1-1-1.5s-1.1-0.6-1.9-0.6c-1.1,0-2.1,0.4-2.7,1.1s-1,1.8-1,3.2
						c0,1.5,0.3,2.7,1,3.5s1.6,1.2,2.7,1.2c0.6,0,1.1-0.1,1.7-0.3s1-0.5,1.4-0.8v-1.7H1703.8z"/>
					<path class="st0" d="M1714.1,49.9v-13h5.5c1.4,0,2.4,0.1,3,0.4c0.6,0.2,1.1,0.6,1.5,1.2c0.4,0.6,0.6,1.3,0.6,2
						c0,1-0.3,1.8-0.9,2.4c-0.6,0.6-1.4,1-2.6,1.2c0.6,0.3,1,0.7,1.4,1.1s0.9,1.1,1.5,2.1l1.6,2.5h-3.1l-1.9-2.8
						c-0.7-1-1.1-1.6-1.4-1.9c-0.2-0.3-0.5-0.4-0.8-0.5s-0.7-0.1-1.3-0.1h-0.5v5.4C1716.7,49.9,1714.1,49.9,1714.1,49.9z
						 M1716.7,42.4h1.9c1.3,0,2-0.1,2.4-0.2s0.6-0.3,0.7-0.5c0.2-0.3,0.3-0.6,0.3-1s-0.1-0.8-0.4-1.1c-0.2-0.3-0.6-0.4-1-0.5
						c-0.2,0-0.9,0-1.9,0h-2V42.4z"/>
					<path class="st0" d="M1729.3,49.9v-13h2.6v13H1729.3z"/>
					<path class="st0" d="M1736.6,49.9v-13h8.9v2.2h-6.3v3.1h5.4v2.2h-5.4v5.5H1736.6z"/>
					<path class="st0" d="M1749.9,49.9v-13h8.9v2.2h-6.3v3.1h5.4v2.2h-5.4v5.5H1749.9z"/>
					<path class="st0" d="M1763.1,49.9v-13h2.6v13H1763.1z"/>
					<path class="st0" d="M1770.5,49.9v-13h2.6l5.3,8.7v-8.7h2.4v13h-2.6l-5.2-8.5v8.5H1770.5z"/>
				</g>
				<g class="st2">
					<path class="st1" d="M1719.8,72.5l-3.1-13h2.7l2,8.9l2.4-8.9h3.1l2.3,9.1l2-9.1h2.6l-3.2,13h-2.8l-2.6-9.7l-2.6,9.7H1719.8z"/>
					<path class="st1" d="M1737.1,72.5v-13h9.6v2.2h-7v2.9h6.5v2.2h-6.5v3.5h7.3v2.2C1747,72.5,1737.1,72.5,1737.1,72.5z"/>
					<path class="st1" d="M1751.3,59.5h5.2c1,0,1.8,0,2.3,0.1s1,0.3,1.4,0.5c0.4,0.3,0.7,0.6,1,1.1s0.4,1,0.4,1.5
						c0,0.6-0.2,1.2-0.5,1.7c-0.3,0.5-0.8,0.9-1.3,1.1c0.8,0.2,1.4,0.6,1.8,1.2s0.6,1.2,0.6,2c0,0.6-0.1,1.2-0.4,1.7s-0.7,1-1.1,1.3
						c-0.5,0.3-1.1,0.5-1.8,0.6c-0.4,0-1.5,0.1-3.2,0.1h-4.4V59.5z M1753.9,61.7v3h1.7c1,0,1.7,0,1.9,0c0.5-0.1,0.8-0.2,1.1-0.5
						c0.3-0.3,0.4-0.6,0.4-1s-0.1-0.7-0.3-1s-0.6-0.4-1-0.5c-0.3,0-1,0-2.2,0C1755.5,61.7,1753.9,61.7,1753.9,61.7z M1753.9,66.8
						v3.5h2.4c0.9,0,1.5,0,1.8-0.1c0.4-0.1,0.7-0.2,1-0.5c0.2-0.3,0.4-0.6,0.4-1.1c0-0.4-0.1-0.7-0.3-1c-0.2-0.3-0.5-0.5-0.8-0.6
						c-0.4-0.1-1.1-0.2-2.3-0.2C1756.1,66.8,1753.9,66.8,1753.9,66.8z"/>
				</g>
				<g class="st2">
					<path class="st0" d="M1697.3,92.4l2.6-0.2c0.2,0.9,0.5,1.5,0.9,1.9s1.1,0.6,1.9,0.6s1.5-0.2,1.9-0.5c0.4-0.4,0.6-0.8,0.6-1.3
						c0-0.3-0.1-0.6-0.3-0.8s-0.5-0.4-0.9-0.6c-0.3-0.1-1-0.3-2.1-0.6c-1.4-0.3-2.4-0.8-3-1.3c-0.8-0.7-1.2-1.6-1.2-2.6
						c0-0.7,0.2-1.3,0.6-1.9s0.9-1,1.6-1.3s1.6-0.5,2.6-0.5c1.6,0,2.9,0.4,3.7,1.1c0.8,0.7,1.3,1.7,1.3,2.9l-2.6,0.1
						c-0.1-0.7-0.4-1.1-0.7-1.4c-0.4-0.3-0.9-0.4-1.7-0.4c-0.8,0-1.4,0.2-1.8,0.5c-0.3,0.2-0.4,0.5-0.4,0.8s0.1,0.6,0.4,0.8
						c0.3,0.3,1.1,0.6,2.4,0.9s2.2,0.6,2.8,0.9c0.6,0.3,1.1,0.8,1.4,1.3c0.3,0.6,0.5,1.2,0.5,2.1c0,0.7-0.2,1.4-0.6,2.1
						s-1,1.1-1.8,1.5c-0.8,0.3-1.7,0.5-2.8,0.5c-1.6,0-2.9-0.4-3.8-1.1C1698,94.9,1697.5,93.8,1697.3,92.4z"/>
					<path class="st0" d="M1716.7,96.6V85.8h-3.9v-2.2h10.3v2.2h-3.9v10.8C1719.2,96.6,1716.7,96.6,1716.7,96.6z"/>
					<path class="st0" d="M1728.5,83.6h2.6v7c0,1.1,0,1.8,0.1,2.2c0.1,0.5,0.4,1,0.8,1.3s1,0.5,1.7,0.5s1.3-0.2,1.7-0.5
						c0.4-0.3,0.6-0.7,0.7-1.1s0.1-1.2,0.1-2.2v-7.2h2.6v6.8c0,1.6-0.1,2.7-0.2,3.3c-0.1,0.6-0.4,1.2-0.8,1.6s-0.9,0.8-1.5,1.1
						c-0.6,0.3-1.5,0.4-2.5,0.4c-1.2,0-2.2-0.1-2.8-0.4c-0.6-0.3-1.1-0.7-1.5-1.1c-0.4-0.5-0.6-0.9-0.7-1.4
						c-0.2-0.7-0.3-1.8-0.3-3.3L1728.5,83.6L1728.5,83.6z"/>
					<path class="st0" d="M1745.2,83.6h4.8c1.1,0,1.9,0.1,2.5,0.2c0.8,0.2,1.4,0.6,2,1.2c0.5,0.6,1,1.3,1.2,2.1
						c0.3,0.8,0.4,1.9,0.4,3.1c0,1.1-0.1,2-0.4,2.8c-0.3,0.9-0.8,1.7-1.4,2.3c-0.5,0.4-1.1,0.8-1.8,1c-0.6,0.2-1.4,0.3-2.3,0.3h-4.9
						L1745.2,83.6L1745.2,83.6z M1747.9,85.8v8.6h2c0.7,0,1.3,0,1.6-0.1c0.4-0.1,0.8-0.3,1.1-0.5c0.3-0.3,0.5-0.7,0.7-1.3
						c0.2-0.6,0.3-1.4,0.3-2.4s-0.1-1.8-0.3-2.3c-0.2-0.5-0.4-1-0.7-1.3s-0.7-0.5-1.2-0.6c-0.4-0.1-1.1-0.1-2.2-0.1
						C1749.2,85.8,1747.9,85.8,1747.9,85.8z"/>
					<path class="st0" d="M1761.9,96.6v-13h2.6v13H1761.9z"/>
					<path class="st0" d="M1770.2,90.2c0-1.3,0.2-2.4,0.6-3.3c0.3-0.7,0.7-1.3,1.2-1.8s1.1-0.9,1.7-1.2c0.8-0.3,1.7-0.5,2.8-0.5
						c1.9,0,3.5,0.6,4.6,1.8c1.2,1.2,1.7,2.8,1.7,5c0,2.1-0.6,3.7-1.7,4.9c-1.1,1.2-2.7,1.8-4.6,1.8s-3.5-0.6-4.6-1.8
						S1770.2,92.3,1770.2,90.2z M1772.9,90.1c0,1.5,0.3,2.6,1,3.4s1.5,1.1,2.6,1.1c1,0,1.9-0.4,2.6-1.1c0.7-0.8,1-1.9,1-3.4
						s-0.3-2.6-1-3.3c-0.7-0.7-1.5-1.1-2.6-1.1s-2,0.4-2.6,1.1C1773.2,87.5,1772.9,88.6,1772.9,90.1z"/>
				</g>
			</g>
		</g>
		<g id="Group_14">
			<path id="Path_15" class="st0" d="M1634.7,53.7c-9.1-7-17.3,13.6-25.3,7.1c-0.6,1.8-1.5,5.1-0.5,6.1c1,1.3,2.8,0.1,3.9,1.2l0,0
				l-0.1,0.2c-1.2,1.5-3.4,1.8-4.9,0.7c-0.3-0.2-0.6-0.5-0.8-0.9l0,0c-5.9-9.3-3.2-21.7,6.1-27.6c4.3-2.7,9.4-3.7,14.4-2.8
				c-18.5-5.1-37.4,9.3-37.3,28.6c0,6.5,2.1,12.7,6,17.9c7.8-1.9,17.7-5.8,27.4-10.9h0.1c4.3-2.3,8.2-5.5,11.3-9.3
				c0.8-1,1.6-1.9,2.4-2.9c2.1-2.4,4-3.9,7-3.3C1644.7,48.9,1640.8,50.6,1634.7,53.7z M1630.4,57c-2,2.7-3.8,3.2-7.1,2.2
				c2.6-1.9,5.2-3.8,8.1-3.3C1631.3,56.2,1630.9,56.6,1630.4,57L1630.4,57z"/>
			<path id="Path_16" class="st0" d="M1648.2,75.2c-3.8,12.2-15,20.7-27.8,20.9l0,0c-6.3,0.1-12.6-1.8-17.7-5.5
				c8.9-3.4,17.6-7.4,26-12c0,0.7,0,1.4,0,2.1l0,0c0.2,1.7,1.4,3.2,3.1,3.7l0,0c0.6,0.2,1.3,0.3,1.9,0.2l0,0l0,0
				c0.5-0.1,1-0.2,1.6-0.3l0,0c4.8-1,9-3.7,11.9-7.7l0,0C1647.5,76.2,1647.9,75.7,1648.2,75.2z"/>
			<path id="Path_17" class="st1" d="M1629.2,75.8c-15.2,8.3-35.7,17.8-50.4,18.4c-2.3,0-4.6-0.3-6-1.7c-3.1-3.9,3.1-11.1,13.3-19.3
				c-5.6,5.8-8.7,12.1-2.5,14l0,0c4.9,1.4,12.6-0.5,17.7-2l0,0c4.5-1.4,8.9-3,13.1-4.9c3.4-1.5,6.7-3.1,10.2-5
				c16-8.1,38-25.5,32.1-31.9c-0.9-0.9-2.1-1.5-3.3-1.7c-1.5-0.3-3-0.4-4.5-0.2c-1.5,0.1-3.1,0.3-4.6,0.6c4-1.3,8.1-2.3,12.2-3
				c2.8-0.4,6.4-0.7,8.8,0.2C1675.5,43.8,1653,62.7,1629.2,75.8z"/>
		</g>
	</g>
	<path id="Path_18" class="st3" d="M1691.5,84.5c44-0.5,94-1.1,94-1c0,0.2-95,0.9-95,4c0,0.4,1.6,0.7,3,1c24.3,4.5,75.1,5,75,2
		c0-1.8-17.2-2.8-25-3c-23.1-0.6-43.1,4.4-43,5c0,0.1,0.6,0.1,3,0c16.2-0.7,52.1-3.8,71-5c4.3-0.3,11.9-0.8,12,0
		c0.1,0.6-4.4,1.5-13,4c-7.2,2.1-11.5,3.5-13,4c-17.2,5.2-68.2,0.2-68-2c0.1-0.6,13-0.4,39,0c32.3,0.5,61,1.9,61,2
		c0,0.2-100-1.9-100-5s97-5.9,97-6s-100,3.6-100,5s98-0.5,98,0s-95,1.5-95,3s95.8,4,96,1c0.2-2.9-94.1-9.6-94-11
		c0.1-1.5,99,2.5,99,7s-98.9,8.2-99,7s98.1-6.7,98-11s-99.8-6.2-100-3c-0.2,3.1,103.1,11.2,103,12s-102.1-6.2-102-9s98.8-2.2,99,2
		c0.1,3.1-51.4,7.7-92,11"/>
	<g class="st2">
		<path class="st4" d="M1700.8,77c0.5,0,0.9,0,1.3,0.1c0.4,0.1,0.8,0.3,1.2,0.6c0.4,0.3,0.7,0.6,0.9,1s0.4,0.8,0.4,1.2c0.1,0.7-0.1,1.2-0.4,1.6
			c-0.4,0.4-0.9,0.7-1.7,0.7c-0.3,0-0.6,0-0.9-0.1c-0.3-0.1-0.5-0.2-0.7-0.3c-0.2-0.1-0.4-0.2-0.6-0.4s-0.4-0.2-0.6-0.1
			c-0.6,0.1-1.4,0.2-2.2,0.5c-0.8,0.3-1.8,0.7-2.8,1.3c-1,0.6-1.9,1.2-2.8,1.9c-0.9,0.7-1.8,1.5-2.6,2.3c-0.8,0.8-1.6,1.7-2.3,2.7
			s-1.4,2-1.9,3c-0.2,0.4-0.4,0.8-0.5,1.3c-0.2,0.5-0.3,1-0.4,1.6c-0.1,0.5-0.2,1.1-0.2,1.7c0,0.6,0,1.1,0,1.7
			c0.1,0.6,0.3,1,0.6,1.3c0.4,0.3,0.8,0.6,1.2,0.7c0.5,0.2,1,0.2,1.5,0.3c0.5,0,1,0,1.3,0c0.7-0.1,1.4-0.2,2.2-0.5s1.5-0.6,2.3-0.9
			c0.8-0.4,1.5-0.8,2.2-1.3s1.3-1,1.9-1.5c0.1-0.1,0.3-0.4,0.6-0.7c0.3-0.3,0.5-0.6,0.8-1c0.2-0.3,0.5-0.7,0.6-1
			c0.2-0.3,0.3-0.6,0.2-0.8c0-0.1,0-0.2-0.1-0.4c0-0.1-0.1-0.3-0.1-0.4c0-0.1-0.1-0.3-0.1-0.4s-0.1-0.2-0.1-0.3
			c-0.1-0.8,0.6-1.2,2.1-1.4c0.4,0,0.8,0,1.2,0.2c0.4,0.1,0.7,0.3,1,0.5c0.3,0.2,0.6,0.5,0.8,0.7c0.2,0.2,0.3,0.5,0.4,0.6
			c0,0,0,0.2-0.1,0.4c-0.1,0.2-0.2,0.5-0.3,0.9c-0.1,0.4-0.3,0.7-0.4,1.1c-0.2,0.4-0.3,0.8-0.4,1.1c-0.1,0.4-0.2,0.7-0.3,0.9
			s-0.2,0.4-0.2,0.5c-0.1,0.5-0.3,1-0.4,1.6c-0.1,0.6-0.3,1.3-0.4,1.9c-0.1,0.6-0.2,1.2-0.2,1.8c-0.1,0.6-0.1,1,0,1.3
			c0,0.1,0,0.2,0.1,0.3c0.1,0.1,0.1,0.2,0.2,0.2c0.1,0.1,0.1,0.1,0.2,0.2c0.1,0.1,0.1,0.1,0.1,0.2c0,0.3,0,0.7-0.1,1
			c-0.1,0.3-0.3,0.6-0.5,0.8c-0.2,0.3-0.5,0.5-0.8,0.6c-0.3,0.2-0.6,0.3-1,0.3c-0.4,0-0.8,0-1.1-0.1c-0.3-0.1-0.5-0.3-0.7-0.5
			c-0.2-0.2-0.3-0.5-0.4-0.8c-0.1-0.3-0.2-0.7-0.2-1.1c0-0.2,0-0.6,0.1-1c0.1-0.4,0.2-0.9,0.3-1.4c0.1-0.5,0.3-1,0.4-1.5
			c0.1-0.5,0.3-0.9,0.3-1.2c-0.7,0.6-1.5,1.2-2.2,1.8c-0.7,0.5-1.4,1-2.2,1.5c-0.8,0.4-1.6,0.8-2.5,1.1c-0.9,0.3-2,0.5-3.2,0.6
			c-1.2,0.1-2.3,0.1-3.4-0.1s-2.1-0.6-2.9-1.1c-0.8-0.5-1.5-1.1-2.1-1.8c-0.5-0.7-0.9-1.5-0.9-2.4c-0.2-1.7,0-3.6,0.6-5.5
			c0.6-1.9,1.6-3.9,3-5.9c0.6-0.8,1.2-1.7,1.8-2.4c0.6-0.8,1.2-1.5,1.8-2.1c0.4-0.4,0.9-0.9,1.4-1.3c0.5-0.4,1.1-0.9,1.7-1.3
			s1.2-0.8,1.8-1.2c0.6-0.4,1.3-0.7,1.9-1c0.7-0.3,1.3-0.6,1.9-0.9c0.6-0.3,1.2-0.5,1.8-0.7c0.6-0.2,1.2-0.4,1.8-0.5
			C1699.4,77.2,1700.1,77.1,1700.8,77z"/>
		<path class="st4" d="M1735.2,89c0,0.1,0,0.3,0,0.5c0,0.2-0.1,0.4-0.1,0.6c-0.1,0.2-0.1,0.4-0.2,0.6c-0.1,0.2-0.2,0.4-0.2,0.5
			c-0.1,0.1-0.1,0.2-0.3,0.4c-0.1,0.2-0.2,0.3-0.4,0.5c-0.1,0.2-0.3,0.4-0.5,0.7c-0.2,0.2-0.4,0.5-0.6,0.7c-0.6,0.7-1.3,1.4-1.9,2.1
			c-0.6,0.7-1.3,1.3-2.1,1.9c-0.7,0.6-1.5,1-2.3,1.4c-0.8,0.4-1.7,0.6-2.7,0.7c-0.4,0-0.8,0-1.3-0.1c-0.4-0.1-0.9-0.3-1.2-0.6
			c-0.4-0.3-0.7-0.6-1.1-1c-0.3-0.4-0.6-0.9-0.7-1.4c-0.2,0.4-0.4,0.8-0.7,1.2c-0.3,0.4-0.6,0.9-1,1.3c-0.4,0.5-0.8,0.9-1.2,1.3
			c-0.4,0.4-0.8,0.8-1.1,1.1c-0.2,0.2-0.5,0.4-0.9,0.7c-0.4,0.2-0.7,0.4-1.1,0.7c-0.4,0.2-0.8,0.4-1.2,0.5c-0.4,0.1-0.8,0.2-1.2,0.3
			c-0.6,0.1-1.1-0.1-1.6-0.3c-0.5-0.3-0.9-0.7-1.2-1.1c-0.3-0.4-0.6-0.9-0.8-1.5c-0.2-0.5-0.3-1-0.4-1.4c-0.1-0.8,0-1.6,0.1-2.5
			c0.1-0.8,0.4-1.7,0.6-2.5c0.3-0.8,0.6-1.6,1-2.4c0.4-0.8,0.8-1.4,1.1-2c0.4-0.6,0.9-1.2,1.5-1.9c0.6-0.6,1.2-1.2,1.8-1.7
			c0.6-0.5,1.3-1,1.9-1.3c0.6-0.3,1.2-0.5,1.8-0.6c0.3,0,0.6-0.1,0.9-0.1c0.3,0,0.6,0,0.9,0c0.3,0,0.6,0,0.9,0.1s0.5,0.1,0.8,0.2
			c0.2,0.1,0.3,0.2,0.5,0.5c0.2,0.2,0.4,0.5,0.6,0.7c0.2,0.3,0.3,0.5,0.5,0.8s0.2,0.5,0.2,0.6c0,0.3,0,0.7,0,1.2
			c-0.1,0.5-0.1,1-0.2,1.5c-0.1,0.5-0.1,1-0.2,1.6c-0.1,0.5-0.1,1,0,1.5c0,0.3,0.1,0.7,0.2,1c0.1,0.3,0.3,0.6,0.5,0.9
			c0.2,0.3,0.4,0.5,0.7,0.6c0.3,0.2,0.6,0.2,0.9,0.2c0.7-0.1,1.4-0.3,2.1-0.6c0.7-0.3,1.3-0.8,2-1.3c0.6-0.5,1.3-1.2,1.9-1.9
			c0.6-0.7,1.3-1.5,1.9-2.3c0,0,0.1-0.1,0.3-0.3c0.1-0.2,0.3-0.4,0.5-0.7c0.2-0.2,0.4-0.5,0.7-0.7c0.2-0.2,0.5-0.3,0.6-0.3
			c0.3,0,0.6,0,0.7,0.2S1735.1,88.6,1735.2,89z M1718.7,88.9c0-0.1,0-0.2-0.1-0.4c-0.1-0.1-0.1-0.3-0.2-0.4
			c-0.1-0.1-0.2-0.2-0.3-0.3c-0.1-0.1-0.2-0.1-0.2-0.1c-0.8,0.1-1.5,0.4-2.1,0.9s-1.2,1.1-1.9,1.9c-0.4,0.4-0.7,1-1.1,1.7
			c-0.4,0.7-0.7,1.5-1,2.3c-0.3,0.8-0.5,1.6-0.7,2.4c-0.2,0.8-0.2,1.5-0.2,2c0,0.1,0,0.3,0.1,0.4c0,0.1,0.1,0.3,0.1,0.4
			c0.1,0.1,0.2,0.2,0.3,0.2c0.1,0.1,0.2,0.1,0.4,0.1c0.5,0,1-0.2,1.5-0.6c0.5-0.4,1.1-0.8,1.6-1.3c0.5-0.5,1-1.1,1.5-1.8
			c0.5-0.7,0.9-1.4,1.2-2c0.4-0.8,0.7-1.7,0.9-2.6C1718.7,90.7,1718.8,89.8,1718.7,88.9z"/>
		<path class="st4" d="M1748.9,85.3c0,0.1,0,0.3,0,0.4s-0.1,0.4-0.2,0.6c-0.1,0.2-0.2,0.4-0.3,0.5c-0.1,0.1-0.3,0.2-0.5,0.3c0,0-0.2,0-0.3,0
			c-0.2,0-0.3,0-0.5,0s-0.3,0-0.5,0c-0.2,0-0.3,0-0.3,0c-2,0.3-3.6,1.2-5,2.7c-0.3,0.3-0.6,0.7-0.9,1.2c-0.3,0.4-0.6,0.9-0.9,1.4
			c-0.3,0.5-0.6,1.1-0.8,1.7s-0.5,1.2-0.7,1.8c-0.2,0.5-0.3,1-0.4,1.6s-0.2,1.1-0.3,1.7c-0.1,0.3-0.1,0.6-0.1,0.8
			c0,0.2-0.1,0.5-0.1,0.8c0,0.2-0.1,0.4-0.3,0.5c-0.1,0.2-0.3,0.3-0.5,0.4c-0.2,0.1-0.4,0.2-0.6,0.3c-0.2,0.1-0.4,0.1-0.6,0.2
			c-0.8,0.1-1.3-0.2-1.7-0.9c-0.4-0.7-0.6-1.7-0.8-3.1c0-0.3-0.1-0.6-0.1-0.9c0-0.3,0-0.6,0-0.8c0-0.3,0-0.6,0-0.9c0-0.3,0-0.7,0-1
			c0-0.6,0-1.2,0-2c0-0.8,0-1.6,0-2.4c0-0.8,0-1.6,0.1-2.3c0-0.8,0.1-1.4,0.2-1.9c0.1-0.7,0.3-1.2,0.6-1.6c0.3-0.4,0.8-0.6,1.4-0.7
			c0.2,0,0.4,0,0.6,0.1c0.2,0.1,0.4,0.2,0.6,0.3c0.2,0.1,0.3,0.3,0.4,0.4c0.1,0.2,0.2,0.3,0.2,0.4l0.1,0.3c0,0.3,0,0.7,0,1.2
			c0,0.5,0,1-0.1,1.5c0,0.5-0.1,1-0.2,1.6c-0.1,0.5-0.1,1-0.2,1.5c-0.1,0.5-0.1,0.9-0.2,1.3c0,0.4-0.1,0.8-0.1,1
			c0.3-0.9,0.7-1.8,1.1-2.7c0.4-0.9,0.8-1.7,1.3-2.4c0.5-0.8,1-1.4,1.6-2.1c0.6-0.6,1.2-1.1,1.9-1.5c0.5-0.3,1.1-0.6,1.5-0.8
			c0.5-0.2,0.9-0.3,1.3-0.3c0.5,0,0.9,0,1.4,0c0.5,0,1,0.1,1.4,0.3c0.4,0.1,0.8,0.3,1.1,0.6S1748.8,84.9,1748.9,85.3z"/>
		<path class="st4" d="M1776.2,84.8c0,0.1,0,0.3,0,0.5c0,0.2-0.1,0.4-0.1,0.6c-0.1,0.2-0.1,0.4-0.2,0.6s-0.2,0.4-0.2,0.5
			c-0.1,0.1-0.1,0.2-0.3,0.4c-0.1,0.2-0.2,0.3-0.4,0.5c-0.1,0.2-0.3,0.4-0.5,0.7c-0.2,0.2-0.4,0.5-0.6,0.7c-0.6,0.7-1.3,1.4-1.9,2.1
			c-0.6,0.7-1.3,1.3-2.1,1.9c-0.7,0.6-1.5,1-2.3,1.4c-0.8,0.4-1.7,0.6-2.7,0.7c-0.4,0-0.8,0-1.3-0.1c-0.4-0.1-0.9-0.3-1.2-0.6
			s-0.7-0.6-1.1-1c-0.3-0.4-0.6-0.9-0.7-1.4c-0.2,0.4-0.4,0.8-0.7,1.2s-0.6,0.9-1,1.3c-0.4,0.5-0.8,0.9-1.2,1.3
			c-0.4,0.4-0.8,0.8-1.1,1.1c-0.2,0.2-0.5,0.4-0.9,0.7c-0.4,0.2-0.7,0.4-1.1,0.7s-0.8,0.4-1.2,0.5c-0.4,0.1-0.8,0.2-1.2,0.3
			c-0.6,0.1-1.1-0.1-1.6-0.3s-0.9-0.7-1.2-1.1c-0.3-0.5-0.6-0.9-0.8-1.5c-0.2-0.5-0.3-1-0.4-1.4c-0.1-0.8,0-1.6,0.1-2.5
			c0.1-0.8,0.4-1.7,0.7-2.5c0.3-0.8,0.6-1.6,1-2.4s0.8-1.4,1.1-2c0.4-0.6,0.9-1.3,1.5-1.9c0.6-0.6,1.2-1.2,1.8-1.7
			c0.6-0.5,1.3-1,1.9-1.3c0.6-0.3,1.2-0.5,1.8-0.6c0.3,0,0.6-0.1,0.9-0.1c0.3,0,0.6,0,0.9,0c0.3,0,0.6,0,0.9,0.1
			c0.3,0,0.5,0.1,0.8,0.2c0.2,0.1,0.3,0.2,0.5,0.5c0.2,0.2,0.4,0.5,0.6,0.7s0.3,0.5,0.5,0.8s0.2,0.5,0.2,0.6c0,0.3,0,0.7,0,1.2
			c-0.1,0.5-0.1,1-0.2,1.5c-0.1,0.5-0.1,1-0.2,1.6c-0.1,0.5-0.1,1,0,1.5c0,0.3,0.1,0.7,0.3,1c0.1,0.3,0.3,0.6,0.5,0.9
			c0.2,0.3,0.4,0.5,0.7,0.6c0.3,0.2,0.6,0.2,0.9,0.2c0.7-0.1,1.4-0.3,2.1-0.6c0.7-0.3,1.3-0.8,2-1.3s1.3-1.2,1.9-1.9
			c0.6-0.7,1.3-1.5,1.9-2.3c0,0,0.1-0.1,0.3-0.3c0.1-0.2,0.3-0.4,0.5-0.7c0.2-0.2,0.4-0.5,0.7-0.7c0.2-0.2,0.5-0.3,0.6-0.3
			c0.3,0,0.6,0,0.7,0.2C1776.1,84.1,1776.1,84.4,1776.2,84.8z M1759.6,84.6c0-0.1,0-0.2-0.1-0.4c-0.1-0.1-0.1-0.3-0.2-0.4
			c-0.1-0.1-0.2-0.2-0.3-0.3c-0.1-0.1-0.2-0.1-0.2-0.1c-0.8,0.1-1.5,0.4-2.1,0.9c-0.6,0.5-1.2,1.1-1.9,1.9c-0.4,0.4-0.7,1-1.1,1.7
			s-0.7,1.5-1,2.3s-0.5,1.6-0.7,2.4c-0.2,0.8-0.2,1.5-0.2,2c0,0.1,0,0.3,0.1,0.4c0,0.1,0.1,0.3,0.1,0.4c0.1,0.1,0.2,0.2,0.3,0.2
			c0.1,0.1,0.2,0.1,0.4,0.1c0.5,0,1-0.2,1.5-0.6c0.5-0.4,1.1-0.8,1.6-1.3c0.5-0.5,1-1.1,1.5-1.8c0.5-0.7,0.9-1.4,1.2-2
			c0.4-0.8,0.7-1.7,0.9-2.6C1759.7,86.5,1759.7,85.6,1759.6,84.6z"/>
		<path class="st4" d="M1785.9,82.1c0,0.8,0,1.7,0,2.7c0,1,0.1,2,0.1,3.2c0,0.4,0,0.9,0,1.5c0,0.6,0,1.2,0,1.8c0,0.6,0,1.2,0,1.8s0,1.1-0.1,1.5
			c0,0.7-0.1,1.5-0.2,2.2s-0.2,1.6-0.4,2.4c-0.2,0.8-0.4,1.5-0.7,2.3c-0.3,0.7-0.7,1.4-1.2,2c-0.5,0.6-1.1,1.1-1.7,1.5
			c-0.7,0.4-1.5,0.6-2.4,0.7c-0.6,0.1-1.1,0.1-1.7,0c-0.6-0.1-1.2-0.2-1.7-0.4c-0.6-0.2-1.1-0.4-1.7-0.6c-0.5-0.3-1-0.5-1.5-0.8
			c-1.1-0.7-1.9-1.5-2.5-2.2c-0.2-0.2-0.3-0.4-0.4-0.6c-0.1-0.2-0.2-0.4-0.2-0.6c0-0.3,0-0.5,0.2-0.7c0.1-0.2,0.3-0.3,0.6-0.3
			c0.1,0,0.2,0,0.4,0.1c0.2,0.1,0.3,0.2,0.5,0.3s0.3,0.2,0.4,0.3c0.1,0.1,0.2,0.2,0.2,0.2c1.1,0.9,2.3,1.5,3.5,1.8
			c1.2,0.4,2.3,0.5,3.5,0.3c0.7-0.1,1.3-0.4,1.7-0.9c0.4-0.5,0.7-1.1,1-1.8c0.2-0.7,0.4-1.5,0.5-2.3c0.1-0.8,0.2-1.6,0.2-2.3
			c0-0.7,0-1.5,0-2.4c0-0.9,0-1.7,0-2.5c-0.5,0.6-1,1.2-1.6,1.8c-0.6,0.6-1.2,1.1-1.9,1.6c-0.7,0.5-1.4,0.9-2.1,1.2
			c-0.7,0.3-1.5,0.5-2.2,0.6c-0.4,0-0.8,0-1.1-0.1c-0.4-0.1-0.7-0.3-1-0.6c-0.3-0.3-0.5-0.6-0.7-1c-0.2-0.4-0.3-0.9-0.4-1.4
			c-0.1-0.7,0-1.4,0.1-2.2c0.2-0.8,0.4-1.6,0.7-2.5c0.3-0.8,0.6-1.6,1-2.4c0.4-0.8,0.8-1.5,1.1-2.1s0.8-1.3,1.4-2
			c0.6-0.7,1.2-1.3,1.9-1.9c0.7-0.6,1.4-1.1,2.1-1.5c0.7-0.4,1.5-0.7,2.2-0.7c0.4,0,0.9,0,1.3,0c0.5,0.1,0.9,0.2,1.3,0.4
			c0.4,0.2,0.7,0.5,1,0.8c0.3,0.3,0.4,0.8,0.5,1.2c0,0.2,0,0.4,0,0.6c0,0.2,0,0.5,0,0.7c0,0.3,0,0.5,0,0.7
			C1785.9,81.7,1785.9,81.9,1785.9,82.1L1785.9,82.1z M1782.2,85.6c0-0.4,0-0.8,0-1.3c0-0.5,0-1.1,0-1.9c0-0.4,0-0.7,0-0.9
			c0-0.2,0-0.4,0-0.5c0-0.3-0.1-0.5-0.1-0.6c-0.1-0.1-0.2-0.2-0.3-0.3c-0.1,0-0.4,0-0.7,0c-0.5,0.4-1,0.9-1.5,1.5s-0.9,1.2-1.4,1.8
			c-0.4,0.6-0.8,1.3-1.2,2c-0.4,0.7-0.7,1.3-0.9,2c-0.3,0.7-0.5,1.3-0.6,2c-0.1,0.6-0.2,1.2-0.1,1.7c0,0.2,0.1,0.3,0.2,0.4
			c0.1,0.1,0.3,0.1,0.5,0.1c0.4,0,0.8-0.2,1.2-0.4c0.4-0.2,0.8-0.5,1.3-0.8c0.4-0.3,0.8-0.6,1.2-1c0.4-0.3,0.7-0.6,1-0.9
			c0.1-0.1,0.2-0.2,0.4-0.4c0.2-0.2,0.3-0.4,0.5-0.7c0.2-0.3,0.3-0.5,0.4-0.8C1782.2,86.1,1782.2,85.9,1782.2,85.6z"/>
		<path class="st4" d="M1811.7,80.7c0,0.2-0.1,0.6-0.4,1.2c-0.5,1-1.1,1.9-1.8,2.9c-0.7,1-1.4,1.9-2.2,2.8c-0.8,0.9-1.6,1.7-2.5,2.5
			c-0.9,0.8-1.8,1.5-2.7,2c-0.9,0.6-1.8,1.1-2.7,1.5c-0.9,0.4-1.8,0.6-2.8,0.7c-2,0.2-3.7-0.2-5-1.2c-1.3-1-2-2.7-2.3-5.1
			c-0.1-0.9-0.1-1.9-0.1-2.8c0-0.9,0.2-1.8,0.4-2.7s0.5-1.8,0.9-2.7c0.4-0.9,0.9-1.8,1.6-2.7c0.2-0.3,0.5-0.6,0.8-1
			c0.3-0.3,0.7-0.6,1.1-0.9c0.4-0.3,0.8-0.5,1.2-0.7c0.4-0.2,0.9-0.3,1.3-0.3c0.6-0.1,1.2,0,1.7,0.2c0.5,0.2,0.9,0.5,1.2,0.8
			c0.3,0.4,0.6,0.8,0.8,1.3c0.2,0.5,0.3,1,0.4,1.6c0.1,1.1-0.2,2.2-0.8,3.4c-0.7,1.2-1.6,2.5-2.9,3.9c-0.4,0.4-0.9,0.9-1.5,1.4
			c-0.6,0.5-1.2,1.1-1.9,1.7c0.1,0.3,0.2,0.6,0.3,0.8c0.2,0.2,0.4,0.5,0.7,0.6c0.3,0.2,0.6,0.3,1,0.4c0.4,0.1,0.8,0.1,1.2,0
			c0.6-0.1,1.2-0.2,1.8-0.4c0.6-0.2,1.3-0.5,1.9-0.8c0.6-0.3,1.2-0.7,1.8-1.1c0.6-0.4,1.1-0.8,1.6-1.2c0.8-0.7,1.6-1.5,2.3-2.3
			c0.7-0.8,1.5-1.7,2.1-2.5l0.9-1.1c0.6-0.7,1.1-1,1.6-1.1c0.2,0,0.4,0,0.5,0.2C1811.7,80.5,1811.7,80.6,1811.7,80.7z M1797.4,78.9
			c0-0.3-0.1-0.5-0.2-0.7c-0.1-0.2-0.2-0.4-0.3-0.4c-0.4,0-0.8,0.3-1.2,0.7c-0.4,0.4-0.8,0.9-1.2,1.6c-0.4,0.7-0.6,1.5-0.9,2.4
			c-0.2,0.9-0.4,2-0.4,3.1c0.5-0.5,1-1,1.6-1.5c0.5-0.5,1-1.1,1.4-1.6c0.4-0.6,0.7-1.1,1-1.7C1797.3,80.1,1797.4,79.5,1797.4,78.9z"
			/>
	</g>
</g>
</svg>
