<?xml version="1.0" encoding="UTF-8"?>
<svg id="Layer_1" xmlns="http://www.w3.org/2000/svg"
    xmlns:xlink="http://www.w3.org/1999/xlink" viewBox="0 0 20 16.7">
    <defs>
        <style>
            .light-dark-cls-1 {
                fill: #ffcf02;
            }

            .light-dark-cls-2 {
                clip-path: url(#clippath);
            }

            .light-dark-cls-3 {
                fill: none;
            }

            .light-dark-cls-4 {
                fill: #f2f2f2;
            }
        </style>
        <clipPath id="clippath">
            <path class="light-dark-cls-3" d="m20,.21H0v14.65c6.67-.66,13.33-1.32,20-1.98V.21Z" />
        </clipPath>
    </defs>
    <g id="switching">
        <g class="light-dark-cls-2">
            <g id="rotator">
                <rect id="bounds" class="light-dark-cls-3" x=".91" y="1.9" width="18.17" height="18.17" />
                <g id="sun">
                    <circle id="sun-disk" class="light-dark-cls-1" cx="5.58" cy="6.54" r="3.42" />
                    <g id="rays">
                        <rect class="light-dark-cls-1" x="5.46" y="10.13" width=".24" height=".8" />
                        <polygon class="light-dark-cls-1" points="4.15 9.8 4.31 9.87 4.09 10.4 3.93 10.34 4.15 9.8" />
                        <polygon class="light-dark-cls-1" points="2.93 9.02 3.1 9.19 2.53 9.76 2.36 9.59 2.93 9.02" />
                        <polygon class="light-dark-cls-1" points="2.25 7.8 2.31 7.95 1.79 8.17 1.72 8.01 2.25 7.8" />
                        <rect class="light-dark-cls-1" x="1.36" y="6.45" width=".62" height=".21" />
                        <polygon class="light-dark-cls-1" points="8.85 7.97 8.91 7.81 9.44 8.03 9.38 8.19 8.85 7.97" />
                        <polygon class="light-dark-cls-1" points="8.06 9.19 8.23 9.02 8.8 9.59 8.63 9.76 8.06 9.19" />
                        <polygon class="light-dark-cls-1" points="6.84 9.87 6.99 9.81 7.21 10.33 7.05 10.4 6.84 9.87" />
                        <polygon class="light-dark-cls-1" points="7.01 3.27 6.85 3.21 7.07 2.68 7.23 2.74 7.01 3.27" />
                        <polygon class="light-dark-cls-1" points="8.23 4.06 8.06 3.89 8.63 3.32 8.8 3.49 8.23 4.06" />
                        <polygon class="light-dark-cls-1" points="8.91 5.28 8.85 5.13 9.37 4.91 9.44 5.06 8.91 5.28" />
                        <rect class="light-dark-cls-1" x="9.17" y="6.42" width=".64" height=".21" />
                        <polygon class="light-dark-cls-1" points="2.31 5.11 2.25 5.26 1.72 5.05 1.78 4.89 2.31 5.11" />
                        <polygon class="light-dark-cls-1" points="3.1 3.89 2.93 4.06 2.36 3.49 2.53 3.32 3.1 3.89" />
                        <polygon class="light-dark-cls-1" points="4.32 3.21 4.17 3.27 3.95 2.75 4.11 2.68 4.32 3.21" />
                        <rect class="light-dark-cls-1" x="5.46" y="2.15" width=".24" height=".8" />
                    </g>
                </g>
                <g id="moon">
                    <path id="half-moon" class="light-dark-cls-1" d="m10.96,14.29c.44-1.56,1.89-2.7,3.59-2.7,2.05,0,3.72,1.67,3.72,3.72,0,1.71-1.14,3.15-2.69,3.59.88-.59,1.47-1.61,1.47-2.75,0-1.85-1.49-3.34-3.34-3.34-1.16,0-2.16.59-2.75,1.47Z" />
                    <g id="neverland">
                        <path id="star_2" class="light-dark-cls-1" d="m14.37,17.11c.35,0,.63-.43.63-.97,0,.54.28.97.63.97h0c-.35,0-.63.43-.63.97,0-.54-.28-.97-.63-.97Z" />
                    </g>
                </g>
            </g>
        </g>
    </g>
    <g id="cloud">
        <circle class="light-dark-cls-4" cx="1.83" cy="14.86" r="1.83" />
        <circle class="light-dark-cls-4" cx="5.84" cy="12.81" r="3.43" />
        <circle class="light-dark-cls-4" cx="15.98" cy="12.68" r="4.02" />
        <circle class="light-dark-cls-4" cx="11.38" cy="10.98" r="5.71" />
        <rect class="light-dark-cls-4" x="1.83" y="15.16" width="14.15" height="1.54" />
    </g>
</svg>