<?xml version="1.0" encoding="UTF-8"?><svg id="Layer_1" xmlns="http://www.w3.org/2000/svg" viewBox="0 0 20 20"><defs><style>.cls-1{fill:#1e3c70;}.cls-2{fill:#4192cf;}</style></defs><path class="cls-2" d="m5.66,14.69c0,.7-.35,1.05-1.04,1.05H1.16c-.69,0-1.03-.35-1.03-1.05v-2.74h1.72v2.34h2.1v-2.25L.5,8.79c-.25-.24-.37-.55-.37-.92v-2.55c0-.7.34-1.06,1.03-1.06h3.46c.69,0,1.04.35,1.04,1.04v2.57h-1.72v-2.16H1.84v2.08l3.44,3.24c.25.23.37.55.37.93v2.74Z"/><path class="cls-2" d="m19.87,14.69c0,.7-.35,1.05-1.05,1.05h-3.61c-.68,0-1.02-.35-1.02-1.05V5.31c0-.7.35-1.06,1.04-1.06h3.59c.7,0,1.05.35,1.05,1.06v2.45h-1.72v-2.03h-2.24v8.53h2.24v-3.21h-1.28v-1.46h3v5.1Z"/><path class="cls-1" d="m14.67,1.23l-3.36,17.54h-2.61L5.35,1.23h2.63l1.96,12.01c.02.34.04.84.07,1.5,0-.34.01-.84.07-1.5l1.97-12.01h2.62Z"/></svg>