<?xml version="1.0" encoding="utf-8"?>
<!-- Generator: Adobe Illustrator 27.1.0, SVG Export Plug-In . SVG Version: 6.00 Build 0)  -->
<svg version="1.1" id="Layer_1" xmlns="http://www.w3.org/2000/svg" xmlns:xlink="http://www.w3.org/1999/xlink" x="0px" y="0px"
	 viewBox="0 0 20 20" style="enable-background:new 0 0 20 20;" xml:space="preserve">
<path d="M11.1,2.6H9.9v1.7h0C10.2,5.1,10.4,6,10.7,7l1.4,4.3H9.9v1.5h2.6l1.6,4.7h2L11.1,2.6z"/>
<path d="M9.9,4.3v7H7.7L9.2,7C9.5,6,9.7,5.2,9.9,4.3L9.9,4.3z"/>
<polygon points="8.8,2.6 3.8,17.4 5.8,17.4 7.3,12.8 9.9,12.8 9.9,17.9 2.1,17.9 2.1,2.1 9.9,2.1 9.9,2.6 "/>
<polygon points="1.1,1.1 1.1,18.9 9.9,18.9 9.9,20 0,20 0,0 9.9,0 9.9,1.1 "/>
<path d="M9.9,1.1v1h8v15.9h-8v1h9V1.1C18.9,1.1,9.9,1.1,9.9,1.1z"/>
</svg>
