<?xml version="1.0" encoding="utf-8"?>
<!-- Generator: Adobe Illustrator 27.1.0, SVG Export Plug-In . SVG Version: 6.00 Build 0)  -->
<svg version="1.1" id="Layer_1" xmlns="http://www.w3.org/2000/svg" xmlns:xlink="http://www.w3.org/1999/xlink" x="0px" y="0px"
	 viewBox="0 0 20 20" style="enable-background:new 0 0 20 20;" xml:space="preserve">
<path d="M19,12.3L18.8,13c-1.3,3.8-4.8,6.3-8.8,6.3c-5.1,0-9.3-4.2-9.3-9.3V9.5h2V10c0,4,3.3,7.3,7.3,7.3c3,0,5.8-1.9,6.8-4.7
	l0.1-0.3H19z"/>
<path d="M19.3,10.4h-2l0-0.5c-0.1-4-3.4-7.2-7.3-7.2c-3,0-5.7,1.8-6.8,4.7L3,7.7H1L1.2,7C2.5,3.2,6,0.7,10,0.7c5,0,9.2,4.1,9.3,9.2
	L19.3,10.4z"/>
<polygon points="19.8,18.8 18,19.2 17.2,13.9 11.8,14.6 11.6,12.6 18.9,11.7 "/>
<polygon points="8.3,7.1 1.1,8.2 0.1,0.8 2.1,0.7 2.8,5.8 8.2,5.1 "/>
</svg>
