<?xml version="1.0" standalone="no"?>
<!DOCTYPE svg PUBLIC "-//W3C//DTD SVG 20010904//EN"
 "http://www.w3.org/TR/2001/REC-SVG-20010904/DTD/svg10.dtd">
<svg version="1.0" xmlns="http://www.w3.org/2000/svg"
 width="700.000000pt" height="700.000000pt" viewBox="0 0 700.000000 700.000000"
 preserveAspectRatio="xMidYMid meet">
<metadata>
Created by potrace 1.14, written by Peter Selinger 2001-2017
</metadata>
<g transform="translate(0.000000,700.000000) scale(0.100000,-0.100000)"
fill="#000000" stroke="none">
<path d="M1877 6563 c-2 -5 8 -69 23 -143 26 -130 87 -449 96 -500 3 -14 7
-36 10 -50 12 -59 16 -79 31 -160 8 -47 16 -89 18 -95 1 -5 5 -28 9 -50 5 -22
16 -83 27 -135 10 -52 20 -108 23 -125 3 -16 19 -100 35 -185 17 -85 48 -252
71 -370 22 -118 47 -246 54 -285 8 -38 22 -108 30 -155 9 -47 19 -96 21 -110
3 -14 14 -72 25 -130 24 -123 22 -113 50 -260 12 -63 24 -124 25 -136 2 -12 8
-45 14 -75 24 -118 42 -212 76 -394 19 -104 40 -210 45 -235 13 -64 81 -421
85 -445 1 -11 17 -94 35 -185 18 -91 34 -174 36 -185 2 -11 11 -58 19 -105 9
-47 21 -105 26 -130 5 -25 12 -60 14 -79 2 -18 7 -40 9 -50 3 -9 8 -29 10 -46
8 -41 44 -234 51 -265 3 -14 9 -50 15 -80 6 -30 12 -66 15 -80 8 -42 106 -553
111 -580 2 -14 7 -36 9 -50 3 -14 7 -36 10 -50 3 -14 9 -47 15 -75 14 -70 18
-97 19 -117 1 -17 30 -18 460 -18 l459 0 7 38 c5 20 10 46 12 57 3 19 72 385
78 415 2 8 17 87 34 175 17 88 34 171 36 185 3 14 16 84 30 155 13 72 49 261
80 420 31 160 60 313 66 340 5 28 11 61 14 75 8 42 77 403 81 430 3 14 13 68
24 120 10 52 24 120 29 150 5 30 22 116 36 190 14 74 28 149 31 165 3 17 11
62 19 100 8 39 16 81 19 95 3 14 16 86 31 160 23 118 78 407 91 480 2 14 9 45
14 70 8 38 40 202 56 290 3 14 25 129 49 255 24 127 51 271 61 320 9 50 17 97
19 105 12 58 36 180 40 203 3 15 7 39 10 55 3 15 19 99 36 187 17 88 43 225
59 305 16 80 33 172 39 205 12 63 17 93 26 135 2 14 7 41 10 60 3 19 12 63 20
98 27 114 80 102 -439 102 -511 0 -458 9 -471 -80 -9 -53 -12 -75 -25 -150 -5
-30 -12 -68 -14 -85 -3 -16 -17 -102 -32 -190 -14 -88 -28 -173 -30 -190 -3
-16 -9 -52 -14 -80 -8 -45 -17 -102 -25 -160 -2 -11 -8 -47 -14 -80 -6 -33
-13 -78 -16 -100 -4 -22 -8 -51 -11 -65 -2 -14 -7 -41 -10 -60 -4 -30 -36
-222 -49 -300 -2 -14 -7 -43 -10 -65 -3 -22 -8 -51 -11 -65 -2 -14 -6 -34 -8
-45 -2 -11 -16 -92 -30 -180 -14 -88 -28 -169 -30 -180 -2 -11 -6 -41 -10 -66
-4 -25 -9 -57 -11 -70 -4 -24 -23 -139 -32 -194 -2 -16 -18 -111 -34 -210 -17
-99 -32 -191 -34 -205 -2 -14 -18 -108 -35 -210 -16 -102 -32 -194 -34 -205
-2 -11 -6 -41 -10 -66 -7 -46 -9 -59 -26 -159 -5 -30 -12 -73 -15 -95 -3 -22
-8 -49 -10 -61 -3 -12 -7 -39 -10 -60 -4 -21 -8 -50 -11 -64 -2 -14 -7 -41
-10 -60 -2 -19 -9 -57 -14 -85 -5 -27 -12 -70 -15 -95 -3 -25 -8 -52 -10 -60
-2 -8 -7 -33 -10 -55 -3 -23 -7 -51 -10 -63 -9 -46 -22 -217 -25 -324 -3 -94
-17 -76 -19 24 -3 134 -13 262 -26 342 -9 53 -65 395 -71 431 -3 22 -32 200
-64 395 -32 195 -61 373 -65 395 -3 22 -10 69 -16 105 -6 36 -13 79 -15 95 -2
17 -8 53 -14 80 -5 28 -12 68 -15 90 -3 22 -12 78 -20 125 -7 47 -16 99 -19
115 -3 17 -10 59 -16 95 -11 68 -39 241 -44 275 -7 43 -19 111 -22 130 -3 11
-9 49 -14 85 -5 36 -12 76 -14 90 -4 21 -98 599 -112 685 -2 17 -9 55 -14 85
-5 30 -12 73 -15 95 -3 22 -8 51 -10 65 -3 14 -7 39 -9 55 -3 17 -14 86 -26
155 -24 145 -28 170 -34 208 -3 15 -12 72 -21 127 -10 55 -18 107 -20 115 -2
13 -62 15 -458 18 -251 1 -458 -1 -460 -5z m1633 -4575 c0 -12 -3 -18 -7 -14
-11 10 -12 36 -2 36 5 0 9 -10 9 -22z"/>
<path d="M5299 5509 c-111 -8 -183 -34 -238 -90 -40 -40 -80 -125 -89 -189 -3
-25 -5 -812 -5 -1750 0 -1551 1 -1710 16 -1761 31 -105 104 -182 201 -212 31
-9 216 -12 766 -12 399 0 740 3 758 8 89 20 165 77 202 147 43 84 43 83 44
1053 1 817 -1 930 -14 936 -11 5 -976 7 -1025 2 -7 -1 -10 -88 -10 -253 l0
-253 205 -2 c113 -1 214 -2 225 -2 20 -1 20 -7 18 -549 -1 -301 -2 -553 -2
-559 -1 -10 -86 -13 -391 -13 l-390 0 0 1493 0 1492 385 0 c211 -1 387 -4 391
-8 4 -3 6 -162 6 -352 -1 -260 2 -345 11 -346 29 -4 564 -6 577 -3 13 3 15 63
14 466 0 351 -4 476 -14 518 -19 77 -65 147 -119 182 -95 60 -92 60 -790 62
-350 0 -679 -2 -732 -5z"/>
<path d="M282 5495 c-29 -8 -65 -21 -80 -29 -74 -39 -134 -133 -149 -236 -5
-30 -8 -282 -7 -560 1 -447 3 -512 18 -563 20 -66 68 -142 124 -195 22 -20 73
-68 114 -107 75 -71 340 -321 478 -451 41 -40 91 -86 110 -104 60 -55 298
-280 398 -376 l95 -90 1 -388 c1 -213 -3 -390 -7 -393 -11 -6 -717 -6 -724 0
-3 3 -5 188 -6 410 l0 404 -298 0 c-210 0 -299 -3 -300 -11 -6 -54 -3 -1003 3
-1041 11 -75 61 -168 110 -204 92 -68 68 -66 838 -66 382 0 712 3 732 7 127
26 214 117 237 249 12 67 11 1094 -1 1164 -5 27 -22 77 -38 110 -30 63 -82
117 -379 395 -80 74 -161 151 -182 170 -20 19 -96 91 -169 160 -73 69 -150
141 -170 160 -21 19 -97 91 -170 160 -73 69 -152 143 -174 166 l-42 40 1 363
0 363 325 0 c179 -1 344 -1 368 -1 l42 -1 0 -377 0 -378 300 0 301 0 -3 510
c-3 463 -5 514 -21 557 -34 87 -118 160 -212 185 -16 4 -340 8 -720 10 -571 1
-699 -1 -743 -12z"/>
</g>
</svg>
