<?xml version="1.0" encoding="UTF-8"?>
<svg id="Layer_1" xmlns="http://www.w3.org/2000/svg"
    xmlns:xlink="http://www.w3.org/1999/xlink" viewBox="0 0 20 16.7">
    <defs>
        <style>
            .cls-1 {
                fill: #ffcf02;
            }

            .cls-2 {
                clip-path: url(#clippath);
            }

            .cls-3 {
                fill: none;
            }

            .cls-4 {
                fill: #f2f2f2;
            }
        </style>
        <clipPath id="clippath">
            <path class="cls-3" d="m20,.21H0v14.65c6.67-.66,13.33-1.32,20-1.98V.21Z" />
        </clipPath>
    </defs>
    <g id="switching">
        <g class="cls-2">
            <g id="rotator">
                <rect id="bounds" class="cls-3" x=".91" y="1.9" width="18.17" height="18.17" />
                <path id="sun" class="cls-1" d="m9,6.54c0,1.89-1.53,3.42-3.42,3.42-1.89,0-3.42-1.53-3.42-3.42,0-1.89,1.53-3.42,3.42-3.42,1.89,0,3.42,1.53,3.42,3.42Zm-3.55,3.6v.8s.25,0,.25,0v-.8s-.25,0-.25,0Zm-1.53.2l.16.06.22-.53-.16-.06-.22.53Zm-1.57-.75l.17.17.57-.57-.17-.17-.57.57Zm-.64-1.58l.07.15.52-.22-.06-.15-.53.22Zm-.36-1.56v.21s.62,0,.62,0v-.21s-.62,0-.62,0Zm8.02,1.73l.06-.16-.53-.22-.06.16.53.22Zm-.75,1.57l.17-.17-.57-.57-.17.17.57.57Zm-1.58.64l.15-.07-.22-.52-.15.06.22.53Zm.17-7.66l-.16-.06-.22.53.16.06.22-.53Zm1.57.75l-.17-.17-.57.57.17.17.57-.57Zm.64,1.58l-.07-.15-.52.22.06.15.53-.22Zm-.26,1.35v.21s.64,0,.64,0v-.21s-.64,0-.64,0Zm-7.39-1.52l-.06.16.53.22.06-.16-.53-.22Zm.75-1.57l-.17.17.57.57.17-.17-.57-.57Zm1.58-.64l-.15.07.22.52.15-.06-.22-.53Zm1.35-.53v.8s.25,0,.25,0v-.8s-.25,0-.25,0Z" />
                <g id="moon">
                    <path id="half-moon" class="cls-1" d="m10.96,14.29c.44-1.56,1.89-2.7,3.59-2.7,2.05,0,3.72,1.67,3.72,3.72,0,1.71-1.13,3.15-2.69,3.59.88-.59,1.47-1.61,1.47-2.75,0-1.85-1.49-3.34-3.34-3.34-1.16,0-2.16.59-2.75,1.47Z" />
                    <path id="neverland" class="cls-1" d="m14.37,17.11c.35,0,.63-.43.63-.97,0,.54.28.97.63.97h0c-.35,0-.63.43-.63.97,0-.54-.28-.97-.63-.97Zm-1.54,2.92c0-.81.41-1.46.92-1.46h0c-.51,0-.92-.66-.92-1.47,0,.81-.41,1.46-.92,1.46.51,0,.92.65.92,1.46Z" />
                </g>
            </g>
        </g>
    </g>
    <g id="cloud">
        <circle class="cls-4" cx="1.83" cy="14.86" r="1.83" />
        <circle class="cls-4" cx="5.84" cy="12.81" r="3.43" />
        <circle class="cls-4" cx="15.98" cy="12.68" r="4.02" />
        <circle class="cls-4" cx="11.38" cy="10.98" r="5.71" />
        <rect class="cls-4" x="1.83" y="15.16" width="14.15" height="1.54" />
    </g>
</svg>