<?xml version="1.0" encoding="UTF-8" standalone="no"?>
<!DOCTYPE svg PUBLIC "-//W3C//DTD SVG 1.1//EN" "http://www.w3.org/Graphics/SVG/1.1/DTD/svg11.dtd">
<svg width="100%" height="100%" viewBox="0 0 239 239" version="1.1" xmlns="http://www.w3.org/2000/svg" xmlns:xlink="http://www.w3.org/1999/xlink" xml:space="preserve" xmlns:serif="http://www.serif.com/" style="fill-rule:evenodd;clip-rule:evenodd;stroke-linejoin:round;stroke-miterlimit:2;">
    <g id="logo" transform="matrix(2.88,0,0,2.88,-1.33493e-14,0)">
        <path d="M83.333,8.333L83.333,75C83.333,79.599 79.599,83.333 75,83.333L8.333,83.333C3.734,83.333 0,79.599 0,75L0,8.333C0,3.734 3.734,0 8.333,0L75,0C79.599,0 83.333,3.734 83.333,8.333Z" style="fill:rgb(98,165,218);"/>
        <clipPath id="_clip1">
            <path d="M83.333,8.333L83.333,75C83.333,79.599 79.599,83.333 75,83.333L8.333,83.333C3.734,83.333 0,79.599 0,75L0,8.333C0,3.734 3.734,0 8.333,0L75,0C79.599,0 83.333,3.734 83.333,8.333Z"/>
        </clipPath>
        <g clip-path="url(#_clip1)">
            <g transform="matrix(1,0,0,1,0.00965983,7.69755e-15)">
                <path d="M0,82.732L0,56.851C10.294,52.964 25.154,50.521 41.667,50.521C58.179,50.521 73.039,52.964 83.333,56.851L83.333,82.732C82.792,82.937 82.238,83.137 81.672,83.333L1.661,83.333C1.095,83.137 0.541,82.937 0,82.732Z" style="fill:rgb(27,52,100);"/>
                <g transform="matrix(1.04167,0,0,1.04167,4.63518e-15,0)">
                    <rect x="27" y="46" width="26" height="20" style="fill:rgb(98,165,218);"/>
                </g>
                <path d="M83.333,70.393L83.333,83.333L0,83.333L0,70.393C10.294,66.505 25.154,64.063 41.667,64.063C58.179,64.063 73.039,66.505 83.333,70.393Z" style="fill:rgb(251,192,60);"/>
                <g transform="matrix(1.04167,0,0,0.771605,2.08333,30.4398)">
                    <path d="M32,50.55C32,50.799 31.851,51 31.667,51C29.671,51 19.329,51 17.333,51C17.149,51 17,50.799 17,50.55L17,24L59,24L59,50.55C59,50.799 58.851,51 58.667,51L44.333,51C44.149,51 44,50.799 44,50.55C44,47.807 44,33.45 44,33.45C44,30.47 41.311,28.05 38,28.05C34.689,28.05 32,30.47 32,33.45L32,50.55Z" style="fill:rgb(27,52,100);"/>
                </g>
                <g transform="matrix(0.248016,0,0,0.578704,15.5754,26.7361)">
                    <rect x="17" y="24" width="42" height="27" style="fill:rgb(27,52,100);"/>
                </g>
                <g>
                    <g>
                        <g transform="matrix(3.18918e-17,0.520833,-0.651042,3.98648e-17,41.6667,13.5417)">
                            <path d="M42,24L46,32L38,32L42,24Z" style="fill:white;"/>
                        </g>
                        <g transform="matrix(1.04167,0,0,1.21528,-41.6667,-5.38194)">
                            <path d="M59.833,31C59.878,31 59.92,31.015 59.951,31.042C59.982,31.069 60,31.105 60,31.143L60,36.857C60,36.895 59.982,36.931 59.951,36.958C59.92,36.985 59.878,37 59.833,37L59.167,37C59.122,37 59.08,36.985 59.049,36.958C59.018,36.931 59,36.895 59,36.857L59,31.143C59,31.105 59.018,31.069 59.049,31.042C59.08,31.015 59.122,31 59.167,31L59.833,31Z" style="fill:rgb(96,66,0);"/>
                        </g>
                    </g>
                    <g>
                        <g transform="matrix(3.18918e-17,0.520833,-0.651042,3.98648e-17,50,13.5417)">
                            <path d="M42,24L46,32L38,32L42,24Z" style="fill:rgb(59,66,217);"/>
                        </g>
                        <g transform="matrix(1.04167,0,0,1.21528,-33.3333,-5.38194)">
                            <path d="M59.833,31C59.878,31 59.92,31.015 59.951,31.042C59.982,31.069 60,31.105 60,31.143L60,36.857C60,36.895 59.982,36.931 59.951,36.958C59.92,36.985 59.878,37 59.833,37L59.167,37C59.122,37 59.08,36.985 59.049,36.958C59.018,36.931 59,36.895 59,36.857L59,31.143C59,31.105 59.018,31.069 59.049,31.042C59.08,31.015 59.122,31 59.167,31L59.833,31Z" style="fill:rgb(96,66,0);"/>
                        </g>
                    </g>
                    <g>
                        <g transform="matrix(3.18918e-17,0.520833,-0.651042,3.98648e-17,75,13.5417)">
                            <path d="M42,24L46,32L38,32L42,24Z" style="fill:rgb(255,138,0);"/>
                        </g>
                        <g transform="matrix(1.04167,0,0,1.21528,-8.33333,-5.38194)">
                            <path d="M59.833,31C59.878,31 59.92,31.015 59.951,31.042C59.982,31.069 60,31.105 60,31.143L60,36.857C60,36.895 59.982,36.931 59.951,36.958C59.92,36.985 59.878,37 59.833,37L59.167,37C59.122,37 59.08,36.985 59.049,36.958C59.018,36.931 59,36.895 59,36.857L59,31.143C59,31.105 59.018,31.069 59.049,31.042C59.08,31.015 59.122,31 59.167,31L59.833,31Z" style="fill:rgb(96,66,0);"/>
                        </g>
                    </g>
                    <g>
                        <g transform="matrix(3.18918e-17,0.520833,-0.651042,3.98648e-17,83.3333,13.5417)">
                            <path d="M42,24L46,32L38,32L42,24Z" style="fill:rgb(217,63,59);"/>
                        </g>
                        <g transform="matrix(1.04167,0,0,1.21528,4.63518e-15,-5.38194)">
                            <path d="M59.833,31C59.878,31 59.92,31.015 59.951,31.042C59.982,31.069 60,31.105 60,31.143L60,36.857C60,36.895 59.982,36.931 59.951,36.958C59.92,36.985 59.878,37 59.833,37L59.167,37C59.122,37 59.08,36.985 59.049,36.958C59.018,36.931 59,36.895 59,36.857L59,31.143C59,31.105 59.018,31.069 59.049,31.042C59.08,31.015 59.122,31 59.167,31L59.833,31Z" style="fill:rgb(96,66,0);"/>
                        </g>
                    </g>
                </g>
                <g transform="matrix(1,0,0,1,0,6.25)">
                    <g transform="matrix(0.0496032,0,0,0.115741,18.9484,29.5139)">
                        <path d="M55.5,24C57.433,24 59,24.672 59,25.5C59,30.226 59,44.774 59,49.5C59,50.328 57.433,51 55.5,51C47.59,51 28.41,51 20.5,51C18.567,51 17,50.328 17,49.5C17,44.774 17,30.226 17,25.5C17,24.672 18.567,24 20.5,24C28.41,24 47.59,24 55.5,24Z" style="fill:rgb(27,52,100);"/>
                    </g>
                    <g transform="matrix(0.0496032,0,0,0.115741,23.1151,29.5139)">
                        <path d="M55.5,24C57.433,24 59,24.672 59,25.5C59,30.226 59,44.774 59,49.5C59,50.328 57.433,51 55.5,51C47.59,51 28.41,51 20.5,51C18.567,51 17,50.328 17,49.5C17,44.774 17,30.226 17,25.5C17,24.672 18.567,24 20.5,24C28.41,24 47.59,24 55.5,24Z" style="fill:rgb(27,52,100);"/>
                    </g>
                    <g transform="matrix(0.0496032,0,0,0.115741,27.2817,29.5139)">
                        <path d="M55.5,24C57.433,24 59,24.672 59,25.5C59,30.226 59,44.774 59,49.5C59,50.328 57.433,51 55.5,51C47.59,51 28.41,51 20.5,51C18.567,51 17,50.328 17,49.5C17,44.774 17,30.226 17,25.5C17,24.672 18.567,24 20.5,24C28.41,24 47.59,24 55.5,24Z" style="fill:rgb(27,52,100);"/>
                    </g>
                </g>
                <g transform="matrix(1,0,0,1,0,6.25)">
                    <g transform="matrix(0.0496032,0,0,0.115741,60.6151,29.5139)">
                        <path d="M55.5,24C57.433,24 59,24.672 59,25.5C59,30.226 59,44.774 59,49.5C59,50.328 57.433,51 55.5,51C47.59,51 28.41,51 20.5,51C18.567,51 17,50.328 17,49.5C17,44.774 17,30.226 17,25.5C17,24.672 18.567,24 20.5,24C28.41,24 47.59,24 55.5,24Z" style="fill:rgb(27,52,100);"/>
                    </g>
                    <g transform="matrix(0.0496032,0,0,0.115741,52.2817,29.5139)">
                        <path d="M55.5,24C57.433,24 59,24.672 59,25.5C59,30.226 59,44.774 59,49.5C59,50.328 57.433,51 55.5,51C47.59,51 28.41,51 20.5,51C18.567,51 17,50.328 17,49.5C17,44.774 17,30.226 17,25.5C17,24.672 18.567,24 20.5,24C28.41,24 47.59,24 55.5,24Z" style="fill:rgb(27,52,100);"/>
                    </g>
                    <g transform="matrix(0.0496032,0,0,0.115741,56.4484,29.5139)">
                        <path d="M55.5,24C57.433,24 59,24.672 59,25.5C59,30.226 59,44.774 59,49.5C59,50.328 57.433,51 55.5,51C47.59,51 28.41,51 20.5,51C18.567,51 17,50.328 17,49.5C17,44.774 17,30.226 17,25.5C17,24.672 18.567,24 20.5,24C28.41,24 47.59,24 55.5,24Z" style="fill:rgb(27,52,100);"/>
                    </g>
                </g>
                <g transform="matrix(0.248016,0,0,0.578704,48.9087,26.7361)">
                    <rect x="17" y="24" width="42" height="27" style="fill:rgb(27,52,100);"/>
                </g>
                <g transform="matrix(1,0,0,1,0,3.125)">
                    <g transform="matrix(0.0496032,0,0,0.115741,31.4484,36.8056)">
                        <path d="M55.5,24C57.433,24 59,24.672 59,25.5C59,30.226 59,44.774 59,49.5C59,50.328 57.433,51 55.5,51C47.59,51 28.41,51 20.5,51C18.567,51 17,50.328 17,49.5C17,44.774 17,30.226 17,25.5C17,24.672 18.567,24 20.5,24C28.41,24 47.59,24 55.5,24Z" style="fill:rgb(27,52,100);"/>
                    </g>
                    <g transform="matrix(0.0496032,0,0,0.115741,35.6151,36.8056)">
                        <path d="M55.5,24C57.433,24 59,24.672 59,25.5C59,30.226 59,44.774 59,49.5C59,50.328 57.433,51 55.5,51C47.59,51 28.41,51 20.5,51C18.567,51 17,50.328 17,49.5C17,44.774 17,30.226 17,25.5C17,24.672 18.567,24 20.5,24C28.41,24 47.59,24 55.5,24Z" style="fill:rgb(27,52,100);"/>
                    </g>
                    <g transform="matrix(0.0496032,0,0,0.115741,48.1151,36.8056)">
                        <path d="M55.5,24C57.433,24 59,24.672 59,25.5C59,30.226 59,44.774 59,49.5C59,50.328 57.433,51 55.5,51C47.59,51 28.41,51 20.5,51C18.567,51 17,50.328 17,49.5C17,44.774 17,30.226 17,25.5C17,24.672 18.567,24 20.5,24C28.41,24 47.59,24 55.5,24Z" style="fill:rgb(27,52,100);"/>
                    </g>
                    <g transform="matrix(0.0496032,0,0,0.115741,39.7817,36.8056)">
                        <path d="M55.5,24C57.433,24 59,24.672 59,25.5C59,30.226 59,44.774 59,49.5C59,50.328 57.433,51 55.5,51C47.59,51 28.41,51 20.5,51C18.567,51 17,50.328 17,49.5C17,44.774 17,30.226 17,25.5C17,24.672 18.567,24 20.5,24C28.41,24 47.59,24 55.5,24Z" style="fill:rgb(27,52,100);"/>
                    </g>
                    <g transform="matrix(0.0496032,0,0,0.115741,43.9484,36.8056)">
                        <path d="M55.5,24C57.433,24 59,24.672 59,25.5C59,30.226 59,44.774 59,49.5C59,50.328 57.433,51 55.5,51C47.59,51 28.41,51 20.5,51C18.567,51 17,50.328 17,49.5C17,44.774 17,30.226 17,25.5C17,24.672 18.567,24 20.5,24C28.41,24 47.59,24 55.5,24Z" style="fill:rgb(27,52,100);"/>
                    </g>
                </g>
                <g transform="matrix(0.978351,-0.206951,0.206951,0.978351,-39.8809,22.2611)">
                    <g transform="matrix(0.0496032,0,0,0.115741,31.4484,36.8056)">
                        <path d="M55.5,24C57.433,24 59,24.672 59,25.5C59,30.226 59,44.774 59,49.5C59,50.328 57.433,51 55.5,51C47.59,51 28.41,51 20.5,51C18.567,51 17,50.328 17,49.5C17,44.774 17,30.226 17,25.5C17,24.672 18.567,24 20.5,24C28.41,24 47.59,24 55.5,24Z" style="fill:rgb(27,52,100);"/>
                    </g>
                    <g transform="matrix(0.0496032,0,0,0.115741,35.6151,36.8056)">
                        <path d="M55.5,24C57.433,24 59,24.672 59,25.5C59,30.226 59,44.774 59,49.5C59,50.328 57.433,51 55.5,51C47.59,51 28.41,51 20.5,51C18.567,51 17,50.328 17,49.5C17,44.774 17,30.226 17,25.5C17,24.672 18.567,24 20.5,24C28.41,24 47.59,24 55.5,24Z" style="fill:rgb(27,52,100);"/>
                    </g>
                    <g transform="matrix(0.0496032,0,0,0.115741,48.1151,36.8056)">
                        <path d="M55.5,24C57.433,24 59,24.672 59,25.5C59,30.226 59,44.774 59,49.5C59,50.328 57.433,51 55.5,51C47.59,51 28.41,51 20.5,51C18.567,51 17,50.328 17,49.5C17,44.774 17,30.226 17,25.5C17,24.672 18.567,24 20.5,24C28.41,24 47.59,24 55.5,24Z" style="fill:rgb(27,52,100);"/>
                    </g>
                    <g transform="matrix(0.0496032,1.37676e-18,0,0.115741,39.7817,36.8056)">
                        <path d="M55.5,24C57.433,24 59,24.672 59,25.5C59,30.226 59,44.774 59,49.5C59,50.328 57.433,51 55.5,51C47.59,51 28.41,51 20.5,51C18.567,51 17,50.328 17,49.5C17,44.774 17,30.226 17,25.5C17,24.672 18.567,24 20.5,24C28.41,24 47.59,24 55.5,24Z" style="fill:rgb(27,52,100);"/>
                    </g>
                    <g transform="matrix(0.0496032,0,0,0.115741,43.9484,36.8056)">
                        <path d="M55.5,24C57.433,24 59,24.672 59,25.5C59,30.226 59,44.774 59,49.5C59,50.328 57.433,51 55.5,51C47.59,51 28.41,51 20.5,51C18.567,51 17,50.328 17,49.5C17,44.774 17,30.226 17,25.5C17,24.672 18.567,24 20.5,24C28.41,24 47.59,24 55.5,24Z" style="fill:rgb(27,52,100);"/>
                    </g>
                </g>
                <g transform="matrix(-0.978351,-0.206951,-0.206951,0.978351,123.214,22.2611)">
                    <g transform="matrix(0.0496032,0,0,0.115741,31.4484,36.8056)">
                        <path d="M55.5,24C57.433,24 59,24.672 59,25.5C59,30.226 59,44.774 59,49.5C59,50.328 57.433,51 55.5,51C47.59,51 28.41,51 20.5,51C18.567,51 17,50.328 17,49.5C17,44.774 17,30.226 17,25.5C17,24.672 18.567,24 20.5,24C28.41,24 47.59,24 55.5,24Z" style="fill:rgb(27,52,100);"/>
                    </g>
                    <g transform="matrix(0.0496032,0,0,0.115741,35.6151,36.8056)">
                        <path d="M55.5,24C57.433,24 59,24.672 59,25.5C59,30.226 59,44.774 59,49.5C59,50.328 57.433,51 55.5,51C47.59,51 28.41,51 20.5,51C18.567,51 17,50.328 17,49.5C17,44.774 17,30.226 17,25.5C17,24.672 18.567,24 20.5,24C28.41,24 47.59,24 55.5,24Z" style="fill:rgb(27,52,100);"/>
                    </g>
                    <g transform="matrix(0.0496032,0,0,0.115741,48.1151,36.8056)">
                        <path d="M55.5,24C57.433,24 59,24.672 59,25.5C59,30.226 59,44.774 59,49.5C59,50.328 57.433,51 55.5,51C47.59,51 28.41,51 20.5,51C18.567,51 17,50.328 17,49.5C17,44.774 17,30.226 17,25.5C17,24.672 18.567,24 20.5,24C28.41,24 47.59,24 55.5,24Z" style="fill:rgb(27,52,100);"/>
                    </g>
                    <g transform="matrix(0.0496032,1.37676e-18,0,0.115741,39.7817,36.8056)">
                        <path d="M55.5,24C57.433,24 59,24.672 59,25.5C59,30.226 59,44.774 59,49.5C59,50.328 57.433,51 55.5,51C47.59,51 28.41,51 20.5,51C18.567,51 17,50.328 17,49.5C17,44.774 17,30.226 17,25.5C17,24.672 18.567,24 20.5,24C28.41,24 47.59,24 55.5,24Z" style="fill:rgb(27,52,100);"/>
                    </g>
                    <g transform="matrix(0.0496032,0,0,0.115741,43.9484,36.8056)">
                        <path d="M55.5,24C57.433,24 59,24.672 59,25.5C59,30.226 59,44.774 59,49.5C59,50.328 57.433,51 55.5,51C47.59,51 28.41,51 20.5,51C18.567,51 17,50.328 17,49.5C17,44.774 17,30.226 17,25.5C17,24.672 18.567,24 20.5,24C28.41,24 47.59,24 55.5,24Z" style="fill:rgb(27,52,100);"/>
                    </g>
                </g>
                <g transform="matrix(0.595238,0,0,0.192901,19.0476,40.162)">
                    <rect x="17" y="24" width="42" height="27" style="fill:rgb(27,52,100);"/>
                </g>
                <path d="M0,24.262L0,-0L24.262,-0C25.638,2.535 26.42,5.438 26.42,8.522C26.42,18.4 18.4,26.42 8.522,26.42C5.438,26.42 2.535,25.638 0,24.262Z" style="fill:rgb(251,192,60);"/>
                <g transform="matrix(1.07221,0,0,1.07221,-3.01238,-22.5239)">
                    <g transform="matrix(0.533847,-5.46476e-17,1.63943e-16,0.533847,30.7337,31.6598)">
                        <path d="M0.656,24.192C0.656,26.519 -0.5,27.683 -2.811,27.683L-14.31,27.683C-16.605,27.683 -17.752,26.519 -17.752,24.192L-17.752,15.085L-12.04,15.085L-12.04,22.873L-5.057,22.873L-5.057,15.378L-16.507,4.538C-17.337,3.741 -17.752,2.724 -17.752,1.487L-17.752,-7.01C-17.752,-9.353 -16.605,-10.525 -14.31,-10.525L-2.811,-10.525C-0.5,-10.525 0.656,-9.37 0.656,-7.058L0.656,1.487L-5.057,1.487L-5.057,-5.716L-12.04,-5.716L-12.04,1.194L-0.589,11.985C0.241,12.766 0.656,13.799 0.656,15.085L0.656,24.192Z" style="fill:white;fill-rule:nonzero;"/>
                    </g>
                    <g transform="matrix(0.520052,2.01999e-17,-2.01999e-16,0.520052,38.0797,31.5146)">
                        <path d="M46.334,24.192C46.334,26.519 45.171,27.683 42.843,27.683L30.832,27.683C28.569,27.683 27.438,26.519 27.438,24.192L27.438,-7.01C27.438,-9.353 28.594,-10.525 30.905,-10.525L42.843,-10.525C45.171,-10.525 46.334,-9.353 46.334,-7.01L46.334,1.145L40.597,1.145L40.597,-5.618L33.151,-5.618L33.151,22.776L40.597,22.776L40.597,12.082L36.349,12.082L36.349,7.224L46.334,7.224L46.334,24.192Z" style="fill:white;fill-rule:nonzero;"/>
                    </g>
                    <g transform="matrix(0.75413,1.53444e-16,-2.03632e-17,0.75413,31.0643,33.9783)">
                        <path d="M24.215,-10.525L16.891,27.732L11.203,27.732L3.903,-10.525L9.64,-10.525L13.913,15.671C13.945,16.42 13.994,17.51 14.059,18.943C14.043,18.194 14.092,17.103 14.206,15.671L18.502,-10.525L24.215,-10.525Z" style="fill:white;fill-rule:nonzero;"/>
                    </g>
                </g>
            </g>
        </g>
    </g>
</svg>
