<svg xmlns="http://www.w3.org/2000/svg" version="1.1" xmlns:xlink="http://www.w3.org/1999/xlink" width="80" height="80"><svg viewBox="0 0 80 80" version="1.1" xmlns="http://www.w3.org/2000/svg" xmlns:xlink="http://www.w3.org/1999/xlink" xml:space="preserve" xmlns:serif="http://www.serif.com/" style="fill-rule:evenodd;clip-rule:evenodd;stroke-linejoin:round;stroke-miterlimit:2;">
    <g id="SvgjsG1038" transform="matrix(0.96,0,0,0.96,-4.44977e-15,0)">
        <rect x="0" y="0" width="83.333" height="83.333" style="fill:none;"></rect>
        <g id="SvgjsG1037" serif:id="Layer 1" transform="matrix(4.34028,0,0,4.34028,-1.93133e-16,0)">
            <g transform="matrix(0.233684,-3.08149e-33,0,0.233987,0.252632,0.280526)">
                <path d="M73.879,2C76.155,2 78,3.843 78,6.116C78,19.342 78,60.658 78,73.884C78,76.157 76.155,78 73.879,78C60.649,78 19.351,78 6.121,78C3.845,78 2,76.157 2,73.884C2,60.658 2,19.342 2,6.116C2,3.843 3.845,2 6.121,2C19.351,2 60.649,2 73.879,2Z" style="fill:rgb(98,165,218);"></path>
            </g>
            <g transform="matrix(0.116842,0,3.08149e-33,0.233987,9.36632,0.280526)">
                <path d="M69.784,2C71.963,2 74.053,2.432 75.594,3.202C77.134,3.971 78,5.015 78,6.103C78,19.318 78,60.682 78,73.897C78,74.985 77.134,76.029 75.594,76.798C74.053,77.568 71.963,78 69.784,78C50.125,78 2,78 2,78L2,2L69.784,2Z" style="fill:rgb(27,52,100);"></path>
            </g>
            <g transform="matrix(8.36131e-17,1.3655,-1.3655,8.36131e-17,21.2966,-3.45976)">
                <g transform="matrix(5.49335e-18,-0.0897133,0.0897133,5.49335e-18,6.53909,6.46573)">
                    <path d="M0.656,24.192C0.656,26.519 -0.5,27.683 -2.811,27.683L-14.31,27.683C-16.605,27.683 -17.752,26.519 -17.752,24.192L-17.752,15.085L-12.04,15.085L-12.04,22.873L-5.057,22.873L-5.057,15.378L-16.507,4.538C-17.337,3.741 -17.752,2.724 -17.752,1.487L-17.752,-7.01C-17.752,-9.353 -16.605,-10.525 -14.31,-10.525L-2.811,-10.525C-0.5,-10.525 0.656,-9.37 0.656,-7.058L0.656,1.487L-5.057,1.487L-5.057,-5.716L-12.04,-5.716L-12.04,1.194L-0.589,11.985C0.241,12.766 0.656,13.799 0.656,15.085L0.656,24.192Z" style="fill:white;fill-rule:nonzero;"></path>
                </g>
                <g transform="matrix(5.49335e-18,-0.0897133,0.0897133,5.49335e-18,11.4512,6.72684)">
                    <path d="M46.334,24.192C46.334,26.519 45.171,27.683 42.843,27.683L30.832,27.683C28.569,27.683 27.438,26.519 27.438,24.192L27.438,-7.01C27.438,-9.353 28.594,-10.525 30.905,-10.525L42.843,-10.525C45.171,-10.525 46.334,-9.353 46.334,-7.01L46.334,1.145L40.597,1.145L40.597,-5.618L33.151,-5.618L33.151,22.776L40.597,22.776L40.597,12.082L36.349,12.082L36.349,7.224L46.334,7.224L46.334,24.192Z" style="fill:white;fill-rule:nonzero;"></path>
                </g>
                <g transform="matrix(0.0786414,-0.136211,0.136211,0.0786414,7.82461,6.69613)">
                    <path d="M24.215,-10.525L16.891,27.732L11.203,27.732L3.903,-10.525L9.64,-10.525L13.913,15.671C13.945,16.42 13.994,17.51 14.059,18.943C14.043,18.194 14.092,17.103 14.206,15.671L18.502,-10.525L24.215,-10.525Z" style="fill:rgb(98,165,218);fill-rule:nonzero;"></path>
                </g>
            </g>
            <g transform="matrix(9.23727e-18,0.150856,-0.150856,9.23727e-18,6.24873,0.246317)">
                <g transform="matrix(1,0,0,1,0,10.7922)">
                    <g transform="matrix(1.56185,0,0,1.56185,-7.74432,-4.71923)">
                        <path d="M23.783,11.699L23.49,11.699L9.306,1.616L9.306,-1.289L23.783,-11.397L23.783,-5.489L15.385,0.151L23.783,5.815L23.783,11.699Z" style="fill:rgb(27,52,100);fill-rule:nonzero;"></path>
                    </g>
                    <g transform="matrix(0.944096,0,0,0.944096,7.89135,-2.17122)">
                        <path d="M34.281,-21.553L33.475,7.744L28.983,7.744L28.178,-21.553L34.281,-21.553ZM34.037,16.655L28.373,16.655L28.373,10.795L34.037,10.795L34.037,16.655Z" style="fill:rgb(27,52,100);fill-rule:nonzero;"></path>
                    </g>
                </g>
                <g transform="matrix(1,0,0,1,61.1192,-41.0616)">
                    <g transform="matrix(0.944096,0,0,0.944096,-7.6424,2.47772)">
                        <path d="M39.237,28.813L24.149,66.655L18.949,66.655L18.949,66.313L34.037,28.447L39.237,28.447L39.237,28.813Z" style="fill:rgb(27,52,100);fill-rule:nonzero;"></path>
                    </g>
                    <g transform="matrix(1.56185,0,0,1.56185,-31.5553,-30.958)">
                        <path d="M56.84,51.616L42.631,61.699L42.289,61.699L42.289,55.815L50.736,50.151L42.289,44.511L42.289,38.603L42.631,38.603L56.84,48.711L56.84,51.616Z" style="fill:rgb(27,52,100);fill-rule:nonzero;"></path>
                    </g>
                </g>
                <g transform="matrix(0.924306,0,0,0.924306,17.0792,-30.4647)">
                    <rect x="29.953" y="53.39" width="5.493" height="5.908" style="fill:rgb(27,52,100);fill-rule:nonzero;"></rect>
                    <rect x="39.157" y="53.39" width="5.493" height="5.908" style="fill:rgb(27,52,100);fill-rule:nonzero;"></rect>
                    <rect x="48.361" y="53.39" width="5.493" height="5.908" style="fill:rgb(27,52,100);fill-rule:nonzero;"></rect>
                </g>
            </g>
        </g>
    </g>
</svg><style>@media (prefers-color-scheme: light) { :root { filter: none; } }
@media (prefers-color-scheme: dark) { :root { filter: none; } }
</style></svg>